<svg width="24" height="24" viewBox="0 0 24 24" fill="none" xmlns="http://www.w3.org/2000/svg">
<path d="M12 0.75C9.01584 0.75 6.1548 1.935 4.0452 4.0452C1.93488 6.15458 0.75 9.01584 0.75 12C0.75 14.9842 1.935 17.8452 4.0452 19.9548C6.15458 22.0651 9.01584 23.25 12 23.25C14.9842 23.25 17.8452 22.065 19.9548 19.9548C22.0651 17.8454 23.25 14.9842 23.25 12C23.25 9.01584 22.065 6.1548 19.9548 4.0452C17.8454 1.93488 14.9842 0.75 12 0.75ZM12 21.75C9.41448 21.75 6.93384 20.7225 5.10552 18.8945C3.27739 17.0664 2.25 14.5858 2.25 12C2.25 9.41424 3.27749 6.93384 5.10552 5.10552C6.93365 3.27739 9.41424 2.25 12 2.25C14.5858 2.25 17.0662 3.27749 18.8945 5.10552C20.7226 6.93365 21.75 9.41424 21.75 12C21.75 14.5858 20.7225 17.0662 18.8945 18.8945C17.0664 20.7226 14.5858 21.75 12 21.75ZM9.75 9.42744C9.75 10.5824 10.1175 11.25 12 11.25C14.49 11.25 15.75 12.3674 15.75 14.5725C15.7097 15.3806 15.3872 16.1484 14.8387 16.7428C14.2913 17.3382 13.5516 17.7216 12.75 17.8275V18.75C12.75 19.1644 12.4144 19.5 12 19.5C11.5856 19.5 11.25 19.1644 11.25 18.75V17.8275C10.4484 17.7216 9.70875 17.3381 9.16126 16.7428C8.61281 16.1484 8.29032 15.3806 8.25 14.5725C8.25 14.1581 8.58562 13.8225 9 13.8225C9.41438 13.8225 9.75 14.1581 9.75 14.5725C9.88313 15.6891 10.8806 16.4963 12 16.395C13.1194 16.4963 14.1169 15.6891 14.25 14.5725C14.25 13.4175 13.8825 12.75 12 12.75C9.51 12.75 8.25 11.6325 8.25 9.42744C8.29031 8.61931 8.61281 7.8515 9.16126 7.25712C9.70875 6.6618 10.4484 6.27838 11.25 6.17244V5.24993C11.25 4.83554 11.5856 4.49993 12 4.49993C12.4144 4.49993 12.75 4.83554 12.75 5.24993V6.17244C13.5516 6.27838 14.2913 6.66182 14.8387 7.25712C15.3872 7.8515 15.7097 8.61931 15.75 9.42744C15.75 9.84182 15.4144 10.1774 15 10.1774C14.5856 10.1774 14.25 9.84182 14.25 9.42744C14.1169 8.31089 13.1194 7.5037 12 7.60493C10.8806 7.50368 9.88313 8.31086 9.75 9.42744Z" fill="black"/>
</svg>