<svg width="24" height="24" viewBox="0 0 24 24" fill="none" xmlns="http://www.w3.org/2000/svg">
<path d="M12 0C5.37288 0 0 5.37288 0 12C0 18.6271 5.37288 24 12 24C18.6271 24 24 18.6271 24 12C24 5.37288 18.6271 0 12 0ZM13.2553 16.6697C13.2553 17.2219 12.8034 17.6737 12.2513 17.6737H11.7487C11.1966 17.6737 10.7447 17.2219 10.7447 16.6697V16.2019C10.7447 15.6497 11.1966 15.1978 11.7487 15.1978H12.2513C12.8034 15.1978 13.2553 15.6497 13.2553 16.2019V16.6697ZM13.2553 12.1481C13.2553 12.7003 12.8034 13.1521 12.2513 13.1521H11.7487C11.1966 13.1521 10.7447 12.7003 10.7447 12.1481V6.42648C10.7447 5.87429 11.1966 5.42242 11.7487 5.42242H12.2513C12.8034 5.42242 13.2553 5.87429 13.2553 6.42648V12.1481Z" fill="#008FB4"/>
</svg>