<svg width="24" height="22" viewBox="0 0 24 22" fill="none" xmlns="http://www.w3.org/2000/svg">
<path d="M15.7196 2.35687C14.9357 1.0429 13.5457 0.234375 12.0048 0.234375C10.4627 0.234375 9.07264 1.01823 8.28995 2.35687L0.63209 15.1956C-0.202109 16.5599 -0.202109 18.177 0.581741 19.567C1.3656 20.9313 2.78026 21.7655 4.34686 21.7655H19.6626C21.255 21.7655 22.645 20.957 23.4277 19.567C24.2115 18.2027 24.1859 16.5601 23.3773 15.1946L15.7196 2.35687ZM12.0048 18.405C11.0442 18.405 10.2614 17.6211 10.2614 16.6616C10.2614 15.701 11.0452 14.9182 12.0048 14.9182C12.9653 14.9182 13.7482 15.702 13.7482 16.6616C13.7482 17.6211 12.9653 18.405 12.0048 18.405ZM13.8242 6.57715L13.3187 12.3396C13.2931 12.693 13.1164 13.0217 12.839 13.2498C12.6119 13.4522 12.3078 13.5528 11.9801 13.5528H11.8537C11.2219 13.5025 10.6908 12.9971 10.6405 12.3396L10.135 6.57715C10.0847 6.09737 10.2357 5.61659 10.5644 5.2375C10.8932 4.85841 11.3226 4.63136 11.8024 4.58C12.3078 4.52966 12.763 4.6807 13.142 5.00944C13.5211 5.31251 13.7482 5.76761 13.7995 6.24739C13.8499 6.37474 13.8499 6.47642 13.8242 6.57712L13.8242 6.57715Z" fill="#FFC017"/>
</svg>