<svg width="32" height="30" viewBox="0 0 32 30" fill="none" xmlns="http://www.w3.org/2000/svg">
<path fill-rule="evenodd" clip-rule="evenodd" d="M0.155173 14.9353C0.289153 15.0973 0.483339 15.1813 0.678373 15.1813H0.679221C0.831009 15.1813 0.984492 15.1304 1.11084 15.0261L2.71348 13.7021V25.3587C2.71348 25.7335 3.01706 26.037 3.39186 26.037H12.8892V26.0379C15.104 26.0379 17.0476 25.4597 18.7044 24.3124C19.5022 24.0289 20.2983 23.8703 21.0886 23.8364C21.5185 26.5577 22.9809 27.8352 24.1749 28.4322C25.0246 28.857 26.0074 29.0648 27.0377 29.0648H27.0385C28.5742 29.0648 30.2159 28.6026 31.6769 27.7046C31.9101 27.5613 32.0348 27.2908 31.9915 27.0203C31.6311 24.7461 29.8597 21.8918 26.8223 20.9972C26.4636 20.8912 26.0862 21.0964 25.9802 21.4559C25.8742 21.8146 26.0794 22.192 26.439 22.298C28.8388 23.0052 30.1523 25.2167 30.5567 26.7829C28.62 27.8191 26.3499 28.0014 24.7812 27.2179C23.5829 26.6191 22.7963 25.4828 22.4802 23.9067C23.0275 23.9861 23.5709 24.1266 24.1088 24.3282C25.4541 24.8329 26.268 25.553 26.2902 25.5726L26.2906 25.573C26.4212 25.6926 26.5849 25.7511 26.7485 25.7511H26.7468C26.9308 25.7511 27.114 25.6765 27.248 25.5306C27.5015 25.2542 27.482 24.8251 27.2056 24.5724C27.0778 24.4559 24.5381 22.1859 20.6963 22.5C21.1601 21.959 21.5919 21.3564 21.9911 20.6926C26.2933 19.7969 28.921 17.9925 29.802 15.327C30.4592 13.3402 30.1166 10.9497 28.7836 8.22266C27.5168 5.6304 25.6554 3.33748 24.3173 1.87133C24.1172 1.65171 23.7975 1.58811 23.5279 1.71446C23.2582 1.84081 23.103 2.12827 23.1446 2.42252C23.382 4.11168 21.9286 6.69546 18.8242 10.1018C14.8836 14.4247 16.3896 16.9704 17.2893 18.4908C17.3139 18.5315 17.3375 18.5717 17.361 18.6115L17.3902 18.6612C17.5802 18.9843 17.9957 19.0928 18.3188 18.9037C18.6419 18.7138 18.7504 18.2983 18.5613 17.9752L18.5315 17.9243C18.5074 17.8832 18.483 17.8417 18.4578 17.7997C17.6133 16.3734 16.5626 14.5977 19.8273 11.0159C22.395 8.19807 23.8959 5.88225 24.3648 3.9989C26.4212 6.50043 29.7155 11.266 28.514 14.9005C27.8693 16.8509 25.9611 18.2601 22.8333 19.099C24.0602 16.4559 24.6427 13.5921 24.9864 11.5333C25.0483 11.1636 24.799 10.8142 24.4293 10.7523C24.0595 10.6904 23.7102 10.9397 23.6483 11.3094C23.2523 13.6795 22.5306 17.1571 20.8355 19.9808C20.0389 21.3077 19.0946 22.3653 18.0245 23.1285C17.9935 23.1468 17.9644 23.1674 17.9372 23.1899C17.8637 23.2409 17.7897 23.2905 17.715 23.3388C16.3379 24.2292 14.714 24.6803 12.8892 24.6803H4.07024V12.5813L7.21625 9.98232C7.37143 9.85343 7.46217 9.66179 7.46217 9.45912V4.32718H9.4973V6.65742C9.4973 6.92029 9.64909 7.15942 9.88653 7.27135C10.124 7.38328 10.4046 7.34767 10.6073 7.18062L16.265 2.50658L19.7247 5.5737C20.0046 5.82216 20.4336 5.79672 20.6821 5.51604C20.9305 5.23621 20.9051 4.80714 20.6244 4.55868L16.7305 1.10573C16.4804 0.884407 16.1064 0.877623 15.8486 1.09046L10.8541 5.21671V3.6488C10.8541 3.274 10.5505 2.97042 10.1757 2.97042H6.78379C6.40898 2.97042 6.10541 3.274 6.10541 3.6488V9.14028L0.245907 13.9805C-0.0424046 14.2188 -0.0831074 14.6462 0.155173 14.9353ZM7.46215 20.6076H12.8892C13.264 20.6076 13.5676 20.304 13.5676 19.9292V14.5022C13.5676 14.1274 13.264 13.8238 12.8892 13.8238H7.46215C7.08734 13.8238 6.78377 14.1274 6.78377 14.5022V19.9292C6.78377 20.304 7.08734 20.6076 7.46215 20.6076ZM12.2108 19.2509H8.14053V15.1806H12.2108V19.2509Z" fill="#005C97"/>
</svg>
