<svg width="36" height="38" viewBox="0 0 36 38" fill="none" xmlns="http://www.w3.org/2000/svg">
<path fill-rule="evenodd" clip-rule="evenodd" d="M10.7823 12.6626C10.7823 12.5124 10.8224 12.3821 10.9025 12.2619V12.2419C9.6204 11.9915 8.67883 11.6209 8.4184 11.07C8.3583 10.9598 8.31823 10.8095 8.31823 10.6593C8.30821 10.1184 8.50855 9.62756 8.87916 9.25694C9.1997 8.94642 9.6204 8.73607 10.1212 8.64592V8.28532C10.1212 6.03156 10.9827 4.12839 12.6154 2.79617C14.0378 1.63423 15.9409 0.993164 17.9843 0.993164C21.9009 0.993164 25.8775 3.50735 25.8775 8.29534V8.65594C26.3783 8.74609 26.809 8.95644 27.1196 9.26695C27.4902 9.63757 27.6905 10.1284 27.6805 10.6693C27.6705 10.8396 27.6404 10.9798 27.5703 11.11C27.3299 11.6409 26.3883 12.0115 25.1062 12.2619C25.1863 12.3721 25.2264 12.5124 25.2264 12.6626C25.2164 18.292 21.971 22.8796 18.0044 22.8796C14.0378 22.8796 10.7924 18.302 10.7823 12.6626ZM18.0044 21.4473C21.1797 21.4473 23.774 17.5007 23.784 12.6626C23.784 12.5925 23.794 12.5224 23.8141 12.4623C22.1713 12.6726 20.2381 12.7427 18.4752 12.7528H17.5436C15.7807 12.7427 13.8374 12.6626 12.1947 12.4623C12.2147 12.5224 12.2247 12.5925 12.2247 12.6626C12.2348 17.5107 14.8291 21.4473 18.0044 21.4473ZM10.8124 10.0583C10.4117 10.0382 10.0611 10.1284 9.89085 10.2987L9.91088 10.2887C9.8608 10.3488 9.82073 10.4089 9.8007 10.489C10.3516 10.7995 13.0261 11.2703 17.5636 11.3003H18.4752C22.9126 11.2703 25.567 10.8095 26.2381 10.4589C26.2181 10.3988 26.178 10.3387 26.1279 10.2887C25.9576 10.1184 25.6171 10.0282 25.2064 10.0483C25.006 10.0483 24.8157 9.98816 24.6755 9.84792C24.5353 9.70769 24.4551 9.52739 24.4551 9.32705V8.29534C24.4551 5.18014 22.4418 3.37714 20.0979 2.72605V6.69266C20.0979 7.09333 19.7773 7.41387 19.3767 7.41387C18.976 7.41387 18.6555 7.09333 18.6555 6.69266V2.46562C18.2247 2.43557 17.784 2.43557 17.3633 2.46562V6.70268C17.3633 7.10335 17.0428 7.42388 16.6421 7.42388C16.2414 7.42388 15.9209 7.10335 15.9209 6.70268V2.72605C15.0294 2.96645 14.208 3.37714 13.5369 3.92806C12.2448 4.97981 11.5636 6.49233 11.5636 8.30535V9.33707C11.5636 9.53741 11.4835 9.71771 11.3433 9.85794C11.203 9.98816 11.0127 10.0583 10.8124 10.0583ZM30.6455 24.7563C31.9076 25.2771 33.2298 26.0284 33.4502 27.6912H33.4402L34.5721 36.1853C34.6021 36.3957 34.542 36.596 34.4018 36.7563C34.2616 36.9165 34.0712 37.0067 33.8609 37.0067H27.911H27.8008H27.6906H8.32833C8.26823 37.0067 8.20813 36.9967 8.15804 36.9867C8.09794 37.0067 8.04786 37.0067 7.98776 37.0067H2.13801C1.92766 37.0067 1.73734 36.9165 1.59711 36.7563C1.46689 36.596 1.39677 36.3957 1.42682 36.1853L2.57874 27.7012C2.68893 26.9099 3.01948 26.1686 3.53033 25.6377C3.931 25.217 4.4118 25.0668 4.84252 24.9466C5.0128 24.8965 5.18309 24.8464 5.36339 24.7663L7.28659 23.9349C7.39677 23.8848 7.50696 23.8648 7.62716 23.8748C7.68726 23.7847 7.77741 23.7045 7.88759 23.6444L11.2732 21.8715C11.4936 21.7613 11.754 21.7613 11.9644 21.8815C12.1747 22.0117 12.315 22.2321 12.325 22.4725L12.7958 30.7763H23.2232L23.6939 22.4725C23.704 22.222 23.8442 22.0017 24.0545 21.8815C24.2649 21.7613 24.5253 21.7613 24.7457 21.8715L28.1313 23.6444C28.2415 23.6945 28.3317 23.7746 28.3918 23.8748C28.4719 23.8748 28.542 23.8948 28.6121 23.9249L30.6455 24.7563ZM3.9911 27.8815L2.9694 35.5643H7.22649L6.87591 25.6778L5.92432 26.0885C5.69394 26.1887 5.46355 26.2588 5.23317 26.3289C4.8926 26.419 4.68225 26.4892 4.56205 26.6194C4.26155 26.9399 4.06122 27.3806 3.9911 27.8815ZM8.67891 35.5643H27.2098L27.5904 24.9766C27.5403 24.9566 27.4502 24.9165 27.4502 24.9165L25.0562 23.6645L24.6155 31.5376C24.5954 31.9182 24.2749 32.2187 23.8943 32.2187H12.1046C11.724 32.2187 11.4035 31.9182 11.3834 31.5376L10.9427 23.6645L8.5487 24.9165C8.46856 24.9566 8.37841 24.9967 8.29828 24.9967L8.67891 35.5643ZM29.0228 25.6578L28.6622 35.5643L28.6722 35.5743H33.0495L32.0278 27.8915C31.9176 27.1002 31.4168 26.6394 30.1046 26.0985L29.0228 25.6578Z" fill="#002A4E"/>
</svg>
