<svg width="20" height="20" viewBox="0 0 20 20" fill="none" xmlns="http://www.w3.org/2000/svg">
<path d="M10.0001 14.0001C11.3118 14.0001 12.4267 14.8423 12.8345 16.0149L12.8837 16.0071L13.0001 16H19.0002C19.5525 16 20.0002 16.4477 20.0002 17.0001C20.0002 17.5126 19.6142 17.9352 19.1166 17.993L19.0002 18.0001H13.0001C12.9439 18.0001 12.8884 17.9954 12.8345 17.986C12.4267 19.1579 11.3118 20 10.0001 20C8.68833 20 7.57347 19.1578 7.16566 17.9852L7.11645 17.993L7.00004 18H1.00001C0.447663 18 0 17.5524 0 17C0 16.4875 0.385942 16.0649 0.883605 16.0071L1.00001 16H7.00005C7.0563 16 7.11176 16.0047 7.16567 16.0141C7.57349 14.8422 8.68834 14.0001 10.0001 14.0001ZM10.0001 16.0001C9.44774 16.0001 9.00008 16.4478 9.00008 17.0001C9.00008 17.5524 9.44774 18.0001 10.0001 18.0001C10.5524 18.0001 11.0001 17.5524 11.0001 17.0001C11.0001 16.4478 10.5524 16.0001 10.0001 16.0001ZM3.00005 7.00004C4.31177 7.00004 5.42666 7.84223 5.83446 9.01485L5.88368 9.00704L6.00009 9.00001H19.0002C19.5525 9.00001 20.0002 9.44767 20.0002 10C20.0002 10.5125 19.6142 10.9352 19.1166 10.993L19.0002 11H6.00008C5.94383 11 5.88836 10.9953 5.83446 10.9859C5.42664 12.1578 4.31179 13 3.00004 13C1.34299 13 2.40001e-05 11.657 2.40001e-05 9.99994C2.40001e-05 8.34289 1.34299 6.99993 3.00004 6.99993L3.00005 7.00004ZM3.00005 9.00005C2.4477 9.00005 2.00004 9.44771 2.00004 10.0001C2.00004 10.5524 2.4477 11.0001 3.00005 11.0001C3.55239 11.0001 4.00005 10.5524 4.00005 10.0001C4.00005 9.44771 3.55239 9.00005 3.00005 9.00005ZM14.0001 0C15.3118 0 16.4267 0.842185 16.8345 2.01481L16.8837 2.007L17.0002 1.99997H19.0002C19.5525 1.99997 20.0002 2.44763 20.0002 2.99997C20.0002 3.51248 19.6142 3.93514 19.1166 3.99294L19.0002 3.99997H17.0001C16.9439 3.99997 16.8884 3.99528 16.8345 3.98591C16.4267 5.15779 15.3119 5.99992 14.0001 5.99992C12.6884 5.99992 11.5735 5.15773 11.1657 3.98511L11.1165 3.99292L11.0001 3.99995H1.00001C0.447663 3.99995 0 3.55229 0 2.99995C0 2.48744 0.385942 2.06478 0.883605 2.00698L1.00001 1.99995H11.0001C11.0563 1.99995 11.1118 2.00464 11.1657 2.01401C11.5735 0.842125 12.6884 0 14.0001 0V0ZM14.0001 2.00001C13.4478 2.00001 13.0001 2.44767 13.0001 3.00002C13.0001 3.55236 13.4478 4.00002 14.0001 4.00002C14.5525 4.00002 15.0001 3.55236 15.0001 3.00002C15.0001 2.44767 14.5525 2.00001 14.0001 2.00001Z" fill="#005C97"/>
</svg>
