<svg width="13" height="12" viewBox="0 0 13 12" fill="none" xmlns="http://www.w3.org/2000/svg">
<path fill-rule="evenodd" clip-rule="evenodd" d="M6.67641 6.88816L11.1236 11.4279C11.429 11.7397 11.8895 11.7525 12.1665 11.4697C12.4435 11.187 12.4315 10.7175 12.1396 10.4196L7.67831 5.86541L11.8619 1.59479C12.1673 1.28303 12.1798 0.813044 11.9028 0.530285C11.6258 0.247527 11.1658 0.25979 10.874 0.557716L6.67641 4.84265L2.4604 0.538916C2.16855 0.24099 1.70862 0.228727 1.43162 0.511486C1.15463 0.794245 1.16664 1.26374 1.4585 1.56167L5.6745 5.86541L1.19478 10.4384C0.902923 10.7363 0.89091 11.2058 1.1679 11.4885C1.4449 11.7713 1.90483 11.759 2.19668 11.4611L6.67641 6.88816Z" fill="#005C97"/>
</svg>
