<svg width="24" height="24" viewBox="0 0 24 24" fill="none" xmlns="http://www.w3.org/2000/svg">
<path d="M12 0C5.3328 0 0 5.3328 0 12C0 18.6672 5.3328 24 12 24C18.6672 24 24 18.6672 24 12C24 5.3328 18.6672 0 12 0ZM18.2672 8.9328L10.9344 16.9328C10.6672 17.2 10.2672 17.3328 10 17.3328C9.73288 17.3328 9.33284 17.2 9.06724 16.9328L5.73288 13.3328C5.20008 12.8 5.33288 12 5.86569 11.4656C6.39849 10.9328 7.19849 11.0656 7.73289 11.5984L10.0001 14.1312L16.4001 7.19841C16.9329 6.66561 17.7329 6.66561 18.2673 7.0656C18.8001 7.46716 18.8001 8.39996 18.2673 8.9328H18.2672Z" fill="#61A744"/>
</svg>