<svg xmlns="http://www.w3.org/2000/svg" width="43.164" height="43.164" viewBox="0 0 43.164 43.164">
  <g id="money-icon" transform="translate(-323.046 -186.046)">
    <path id="Path_3" data-name="Path 3" d="M21.582,43.164A21.582,21.582,0,0,1,6.321,6.321,21.582,21.582,0,0,1,36.843,36.843a21.44,21.44,0,0,1-15.261,6.321Zm0-40.467A18.884,18.884,0,1,0,40.467,21.582,18.906,18.906,0,0,0,21.582,2.7Z" transform="translate(323.046 186.046)" fill="#d8f099"/>
    <path id="Path_4" data-name="Path 4" d="M190.07,108.14a3.372,3.372,0,1,1,3.372-3.372,1.349,1.349,0,1,0,2.7,0,6.079,6.079,0,0,0-4.721-5.917v-1.5a1.349,1.349,0,1,0-2.7,0v1.5a6.069,6.069,0,0,0,1.349,11.987,3.372,3.372,0,1,1-3.372,3.372,1.349,1.349,0,0,0-2.7,0,6.079,6.079,0,0,0,4.721,5.917v1.5a1.349,1.349,0,1,0,2.7,0v-1.5a6.069,6.069,0,0,0-1.349-11.987Z" transform="translate(154.558 98.139)" fill="#d8f099"/>
  </g>
</svg>
