<svg width="26" height="26" viewBox="0 0 26 26" fill="none" xmlns="http://www.w3.org/2000/svg">
<path d="M12.9999 5.93652C10.4072 5.93652 8.28564 8.06175 8.28564 10.6592C8.28564 13.2567 10.4071 15.382 12.9999 15.382C15.5928 15.382 17.7142 13.2567 17.7142 10.6592C17.7142 8.06175 15.5928 5.93652 12.9999 5.93652ZM12.9999 13.8077C11.2714 13.8077 9.85707 12.3909 9.85707 10.6592C9.85707 8.92758 11.2714 7.51076 12.9999 7.51076C14.7285 7.51076 16.1428 8.92758 16.1428 10.6592C16.1428 12.3909 14.7285 13.8077 12.9999 13.8077Z" fill="black" stroke="black" stroke-width="0.25"/>
<path d="M13 1C6.35707 1 1 6.36666 1 13.0215C1 16.2844 2.32859 19.2897 4.42857 21.4365C4.94286 21.9517 5.49999 22.424 6.14286 22.8533C8.07141 24.2272 10.4286 25 13 25C15.5714 25 17.9286 24.1842 19.8571 22.8533C20.4571 22.424 21.0143 21.9517 21.5714 21.4365C23.7143 19.2469 25 16.2844 25 13.0215C25 6.36666 19.6429 1 13 1ZM13 23.3256C10.4286 23.3256 8.11442 22.3811 6.31429 20.8354C6.78573 19.2898 8.2 18.1735 9.8715 18.1735H16.1716C17.843 18.1735 19.2573 19.2898 19.7288 20.8354C17.8859 22.3811 15.5717 23.3256 13.0003 23.3256H13ZM21.0144 19.4617C20.1144 17.6585 18.2715 16.4562 16.1716 16.4562H9.8715C7.72864 16.4562 5.88585 17.7012 5.02871 19.4617C3.57157 17.7014 2.71442 15.4689 2.71442 13.0215C2.71442 7.35421 7.34299 2.71735 13.0001 2.71735C18.6573 2.71735 23.2859 7.35421 23.2859 13.0215C23.2859 15.4687 22.4287 17.7012 21.0144 19.4617H21.0144Z" fill="black" stroke="black" stroke-width="0.25"/>
</svg>
