<svg width="22" height="24" viewBox="0 0 22 24" fill="none" xmlns="http://www.w3.org/2000/svg">
<path d="M11.2881 0.0314457L11.3802 0.0580415L20.6499 3.33145C21.056 3.47568 21.3435 3.84189 21.3701 4.27461V14.0294H21.3568C21.1604 17.5379 18.2531 20.6029 12.7938 23.2737L12.2701 23.5223C12.0082 23.6532 11.733 23.7709 11.4456 23.9018C11.1571 24.0327 10.8431 24.0327 10.5556 23.9018C10.2805 23.7842 10.0053 23.6532 9.73116 23.5223L9.20742 23.2737C3.76021 20.5895 0.854208 17.5392 0.644448 14.0294H0.63115L0.630127 4.36574C0.630127 3.93407 0.878702 3.54126 1.28481 3.37041L1.36357 3.34382L10.6333 0.0704124C10.8553 -0.00835356 11.0783 -0.0206302 11.288 0.03154L11.2881 0.0314457ZM11.0129 2.24406L2.82941 5.13801V13.6355C2.82941 16.2809 5.21287 18.873 10.1485 21.3086L10.6589 21.5572L10.9996 21.7147L11.3402 21.5572L11.8507 21.3086L12.3478 21.0601C16.8785 18.7421 19.1044 16.2809 19.1832 13.7797V5.13795L11.0129 2.24406ZM10.3971 15.5074C10.3183 15.5861 10.214 15.6383 10.1086 15.6649L10.0432 15.6782H9.97769C9.84676 15.6649 9.71582 15.6127 9.62375 15.5207L6.53339 12.4303C6.32369 12.2206 6.32369 11.8677 6.53339 11.658L7.3057 10.8857C7.51541 10.676 7.86831 10.676 8.07802 10.8857L10.0032 12.8109L14.2453 8.5688C14.455 8.35909 14.8079 8.35909 15.0176 8.5688L15.7899 9.34111C15.9996 9.55081 15.9996 9.90372 15.7899 10.1134L10.3971 15.5074Z" fill="black"/>
</svg>
