<svg width="36" height="36" viewBox="0 0 36 36" fill="none" xmlns="http://www.w3.org/2000/svg">
<path fill-rule="evenodd" clip-rule="evenodd" d="M17.9977 0.000976562C21.6824 0.000976562 25.1871 1.49392 27.6012 4.08804V4.07745C29.6236 6.25862 30.64 9.00098 30.4389 11.7963C30.0577 17.1433 28.2048 18.6257 26.5636 19.928C25.6318 20.6692 24.8271 21.3257 24.3189 22.681C24.2871 22.8186 24.213 22.9457 24.1177 23.0516C24.1071 23.0516 24.0965 23.0727 24.0965 23.0727C24.0542 23.1257 24.0012 23.1574 23.9483 23.1892C23.8953 23.221 23.853 23.2422 23.8 23.2633C23.7895 23.2739 23.7683 23.2845 23.7683 23.2845L13.2436 26.048C13.18 26.0692 13.1165 26.0692 13.053 26.0692C12.7142 26.0692 12.3965 25.8363 12.3118 25.4974C12.3012 25.4339 12.3012 25.381 12.3012 25.3174C12.1953 25.1904 12.1212 25.0422 12.1106 24.8727C11.9312 21.9696 10.8781 21.1505 9.54951 20.1172L9.53769 20.108L9.53718 20.1076C7.84318 18.7948 5.91648 17.3016 5.55652 11.7963C5.37652 8.99039 6.39299 6.23745 8.43652 4.05627C10.8506 1.48333 14.313 0.000976562 17.9977 0.000976562ZM25.6468 18.7321C27.1621 17.5116 28.5984 16.3548 28.9247 11.701V11.7116C29.0942 9.3398 28.2259 6.9998 26.4895 5.13627C24.3824 2.88098 21.1953 1.53627 17.9977 1.53627C14.8 1.53627 11.6448 2.87039 9.54828 5.10451C7.79063 6.97862 6.91181 9.32921 7.07063 11.7116C7.3882 16.528 8.944 17.7357 10.4578 18.9107L10.4589 18.9116C11.8459 19.981 13.2648 21.1139 13.5824 24.3857L22.9953 21.9186C23.6624 20.3304 24.6471 19.5257 25.6212 18.7527L25.6468 18.7321ZM12.8624 28.5363L23.3871 25.7727V25.7833C23.8001 25.6669 24.213 25.921 24.3189 26.3233C24.4248 26.7363 24.1813 27.1492 23.7789 27.2551L13.2542 30.0186C13.1907 30.0398 13.1271 30.0398 13.0636 30.0398C12.7248 30.0398 12.4071 29.8069 12.3224 29.468C12.2166 29.0551 12.4601 28.6422 12.8624 28.5363ZM23.3871 29.7414L12.8624 32.505C12.46 32.6108 12.2165 33.0238 12.3224 33.4367C12.4071 33.7755 12.7247 34.0085 13.0635 34.0085C13.1271 34.0085 13.1906 34.0085 13.2541 33.9873L14.1329 33.7544C14.1329 33.9238 14.1647 34.0932 14.2812 34.2308C15.1282 35.332 16.5259 35.9991 18.0188 35.9991C20.5071 35.9991 22.54 34.1885 22.54 31.965C22.54 31.8167 22.4871 31.7003 22.4235 31.5838L23.7894 31.2238C24.1918 31.1179 24.4353 30.705 24.3294 30.292C24.2235 29.8897 23.8106 29.6355 23.3977 29.752L23.3871 29.7414ZM21.0047 31.9544C21.0047 33.3414 19.66 34.4638 18.0082 34.4638C17.0235 34.4638 16.113 34.0508 15.5518 33.3732L21.0047 31.9438V31.9544ZM22.7414 8.3033C22.9425 7.93272 23.4084 7.80566 23.779 8.01742V8.02801C24.139 8.22919 24.2767 8.69507 24.0649 9.06566L18.2837 19.2833C18.1567 19.5057 17.9131 19.6539 17.659 19.6645H17.6167C17.3731 19.6645 17.1508 19.548 17.0025 19.3468L13.159 14.0527C12.9155 13.7033 12.9896 13.2268 13.3284 12.9833C13.6778 12.7398 14.1543 12.8139 14.3978 13.1527L17.5425 17.4833L22.7414 8.3033Z" fill="#002A4E"/>
</svg>
