<svg width="36" height="36" viewBox="0 0 36 36" fill="none" xmlns="http://www.w3.org/2000/svg">
<path d="M33.75 17.0625H25.4995C25.4939 15.2091 24.8006 13.4233 23.5533 12.052C22.306 10.6809 20.5945 9.82033 18.7495 9.63893V8.06252H21.7504C21.9487 8.06252 22.1399 7.98377 22.2805 7.84314C22.4212 7.70252 22.4999 7.51127 22.4999 7.31297V4.31345C22.4999 4.11376 22.4212 3.92253 22.2805 3.78188C22.1399 3.64122 21.9487 3.5625 21.7504 3.5625H17.9999C17.8016 3.5625 17.6104 3.64125 17.4697 3.78188C17.3291 3.9225 17.2503 4.11375 17.2503 4.31345V9.63893C15.4053 9.82034 13.6939 10.681 12.4465 12.052C11.1992 13.4231 10.5059 15.2091 10.5003 17.0625H2.24979C2.05151 17.0625 1.86027 17.1413 1.71962 17.2819C1.57897 17.4225 1.50024 17.6138 1.50024 17.8135V31.3135C1.50024 31.5118 1.57899 31.703 1.71962 31.8437C1.86025 31.9843 2.0515 32.063 2.24979 32.063H33.7498C33.9481 32.063 34.1393 31.9843 34.28 31.8437C34.4206 31.703 34.4993 31.5118 34.4993 31.3135V17.8135C34.4993 17.6138 34.4206 17.4226 34.28 17.2819C34.1393 17.1413 33.9481 17.0625 33.7498 17.0625L33.75 17.0625ZM33.0005 18.563V20.0635H25.4995V18.563H33.0005ZM18.751 5.063H21.001V6.56348H18.7496L18.751 5.063ZM18.0014 11.0635H18C19.5905 11.0649 21.1163 11.6977 22.2412 12.8227C23.3648 13.9477 23.9976 15.4721 24.0004 17.0624H11.9994C12.0023 15.4719 12.6351 13.9476 13.7587 12.8227C14.8837 11.6977 16.4094 11.0649 17.9998 11.0635H18.0014ZM10.5019 18.563V20.0635H2.99952V18.563H10.5019ZM3.0024 21.5625H10.5005V30.5625H2.99952L3.0024 21.5625ZM12.0024 18.563H24.0005V30.5625H20.9996V23.8125C20.9996 23.6142 20.9208 23.423 20.7802 23.2824C20.6396 23.1417 20.4483 23.063 20.25 23.063H15.75C15.5517 23.063 15.3605 23.1417 15.2198 23.2824C15.0792 23.423 15.0005 23.6142 15.0005 23.8125V30.5625H11.9995L12.0024 18.563ZM16.5024 30.5625V24.562H19.5019V30.5625H16.5024ZM33.0019 30.5625H25.4995V21.5625H33.0005L33.0019 30.5625Z" fill="#002A4E"/>
</svg>
