<svg xmlns="http://www.w3.org/2000/svg" viewBox="0 0 14.032 10.524">
  <defs>
    <style>
      .cls-1 {
        fill: #008FB4;
      }
    </style>
  </defs>
  <g id="_001-mail" data-name="001-mail" transform="translate(0 -64)">
    <path id="Path_257" data-name="Path 257" class="cls-1" d="M12.278,64H1.754A1.754,1.754,0,0,0,0,65.754V72.77a1.754,1.754,0,0,0,1.754,1.754H12.278a1.754,1.754,0,0,0,1.754-1.754V65.754A1.754,1.754,0,0,0,12.278,64ZM9.391,68.681,13.1,65.5a.845.845,0,0,1,.051.255V72.77a.83.83,0,0,1-.035.172Zm2.887-3.8a.812.812,0,0,1,.164.033L7.016,69.562,1.59,64.91a.812.812,0,0,1,.164-.033ZM.912,72.942a.82.82,0,0,1-.035-.171V65.754A.845.845,0,0,1,.929,65.5L4.64,68.68Zm.842.706A.844.844,0,0,1,1.5,73.6l3.8-4.346,1.424,1.22a.436.436,0,0,0,.57,0l1.424-1.22,3.8,4.346a.839.839,0,0,1-.25.051Z"/>
  </g>
</svg>
