<svg xmlns="http://www.w3.org/2000/svg" width="33" height="33.085" viewBox="0 0 33 33.085"><path d="M29.39,7.734a5.027,5.027,0,0,1,1.837,1.934A6.279,6.279,0,0,1,32,12.278V26.489A5.614,5.614,0,0,1,26.489,32H5.511a5.42,5.42,0,0,1-3.867-1.643A5.419,5.419,0,0,1,0,26.489V12.278a5.808,5.808,0,0,1,.677-2.61A5.027,5.027,0,0,1,2.514,7.734L12.955.87a5.6,5.6,0,0,1,5.994,0ZM2.417,12.278V26.489a2.971,2.971,0,0,0,3,3H26.586a2.971,2.971,0,0,0,3-3V12.278a3.2,3.2,0,0,0-.387-1.45,3.712,3.712,0,0,0-1.063-1.063L17.6,2.9a3.259,3.259,0,0,0-1.643-.483A2.675,2.675,0,0,0,14.4,2.9L3.867,9.764A2.8,2.8,0,0,0,2.8,10.828a2.518,2.518,0,0,0-.383,1.45ZM16.145,24.846a7.694,7.694,0,0,1-6.187-3,1.413,1.413,0,0,1,.29-2.03,1.35,1.35,0,0,1,.87-.29,1.378,1.378,0,0,1,1.16.58,4.989,4.989,0,0,0,7.734,0,1.413,1.413,0,0,1,2.03-.29,1.282,1.282,0,0,1,.58.967,1.091,1.091,0,0,1-.29,1.063,7.694,7.694,0,0,1-6.187,3Z" transform="translate(0.5 0.585)" fill="#002a4e" stroke="rgba(0,78,70,0)" stroke-width="1" fill-rule="evenodd"/></svg>