<svg width="36" height="36" viewBox="0 0 36 36" fill="none" xmlns="http://www.w3.org/2000/svg">
<path d="M17.9115 3.27739C17.7517 3.29337 17.6014 3.3557 17.4768 3.45638L0.307149 17.7717V17.7733C0.0338801 17.9907 -0.0699954 18.3598 0.0482641 18.689C0.166519 19.0182 0.481341 19.2355 0.831329 19.2291H4.91917V31.9097C4.91917 32.362 5.28513 32.7279 5.73578 32.7279H21.2707C21.4896 32.7311 21.7005 32.6464 21.8571 32.4914C22.0122 32.338 22.1001 32.1286 22.1001 31.9097C22.1001 31.6908 22.0122 31.4798 21.8571 31.3264C21.7005 31.173 21.4896 31.0883 21.2707 31.0915H6.55399V18.4109C6.55399 17.9603 6.18803 17.5943 5.73578 17.5943H3.09101L17.9991 5.15839L24.4249 10.4497L24.4265 10.4481C24.5719 10.5728 24.7573 10.6399 24.9491 10.6399H29.4459V14.3218C29.4475 14.5631 29.5546 14.7932 29.74 14.9483L32.9089 17.5947H30.2642C29.8119 17.5947 29.446 17.9606 29.446 18.4113V31.0902H25.5755C24.2794 25.3165 18.381 19.8206 15.228 17.3501V17.3517C15.0586 17.1982 14.8333 17.1215 14.6064 17.1423C14.3795 17.1615 14.1701 17.2765 14.0311 17.4571C13.8921 17.6377 13.8345 17.8678 13.8729 18.0932C13.9097 18.3185 14.0407 18.5167 14.2309 18.6413C15.8161 19.883 18.1637 22.0388 20.1837 24.5205C18.3396 24.4278 16.962 24.1306 15.9552 23.7151C14.6928 23.1941 13.9753 22.5037 13.4511 21.5928C12.529 19.9916 12.2717 17.5258 11.6501 14.7674C14.9133 14.852 17.1636 15.3091 18.5746 16.1865C20.1343 17.1565 20.9045 18.5963 21.2833 20.9918V20.9934C21.3008 21.2219 21.4127 21.4328 21.5917 21.5735C21.7707 21.7157 22.0008 21.7764 22.2277 21.7397C22.4531 21.7045 22.6528 21.5751 22.7791 21.3849C22.9069 21.1947 22.9469 20.9598 22.8925 20.7377C22.4739 18.0817 21.4447 16.0379 19.4439 14.7947C17.4416 13.5498 14.6337 13.0944 10.6417 13.0944C10.6161 13.0928 10.5905 13.0928 10.565 13.0944C10.3252 13.1167 10.1079 13.243 9.97048 13.4395C9.83305 13.6377 9.78831 13.8838 9.84903 14.1171C10.6528 17.131 10.6736 20.0524 12.0336 22.4125C12.7128 23.5934 13.7722 24.5938 15.3288 25.2378C16.8373 25.8611 18.8014 26.1807 21.435 26.1839C22.7902 28.1079 23.8433 30.1359 24.1437 32.0377H24.1453C24.2077 32.4341 24.5481 32.7265 24.9492 32.7281H30.2642C30.7149 32.7281 31.0808 32.3621 31.0824 31.9099V19.231H35.1703V19.2294C35.5187 19.2358 35.8335 19.0184 35.9517 18.6892C36.07 18.36 35.9661 17.9909 35.6929 17.7735L31.081 13.9254V9.82171L31.0826 9.82331C31.081 9.37104 30.7151 9.0051 30.2644 9.0051H25.2562L18.5236 3.45807V3.45647C18.3526 3.31584 18.1304 3.25192 17.9115 3.27749L17.9115 3.27739Z" fill="black"/>
</svg>
