<svg width="36" height="36" viewBox="0 0 36 36" fill="none" xmlns="http://www.w3.org/2000/svg">
<path d="M18.6115 11.2316H23.2915C23.7598 11.2316 24.1198 10.8716 24.1198 10.4034C24.1198 9.93507 23.7598 9.57507 23.2915 9.57507H18.6115C18.1432 9.57507 17.7832 9.93507 17.7832 10.4034C17.7832 10.8716 18.1432 11.2316 18.6115 11.2316Z" fill="#002A4E"/>
<path d="M12.0974 10.9084L13.1408 12.025C13.2843 12.205 13.5374 12.2767 13.7525 12.2767C13.9691 12.2767 14.2208 12.1684 14.3643 12.025L16.3077 9.93668C16.6311 9.61324 16.596 9.07326 16.2711 8.74839C15.9477 8.42496 15.4077 8.46011 15.0828 8.78496L13.7511 10.225L13.3208 9.75667C12.9974 9.43323 12.4574 9.39667 12.1325 9.72011C11.8091 10.0435 11.7725 10.5835 12.0974 10.9084H12.0974Z" fill="#002A4E"/>
<path d="M18.6115 15.84H23.2915C23.7598 15.84 24.1198 15.48 24.1198 15.0118C24.1198 14.5435 23.7598 14.1835 23.2915 14.1835H18.6115C18.1432 14.1835 17.7832 14.5435 17.7832 15.0118C17.7832 15.48 18.1432 15.84 18.6115 15.84Z" fill="#002A4E"/>
<path d="M15.0835 13.3917L13.7518 14.8317L13.32 14.3634C12.9966 14.04 12.4566 14.0034 12.1317 14.3268C11.8083 14.6503 11.7718 15.1903 12.0952 15.5151L13.1386 16.6317C13.2821 16.8117 13.5352 16.8834 13.7503 16.8834C13.9669 16.8834 14.2186 16.7751 14.362 16.6317L16.3055 14.5434C16.6289 14.22 16.5937 13.68 16.2689 13.3551C15.9117 13.0317 15.4083 13.0317 15.0834 13.3917H15.0835Z" fill="#002A4E"/>
<path d="M18.6115 20.4834H23.2915C23.7598 20.4834 24.1198 20.1234 24.1198 19.6551C24.1198 19.1868 23.7598 18.8268 23.2915 18.8268H18.6115C18.1432 18.8268 17.7832 19.1868 17.7832 19.6551C17.7832 20.1234 18.1432 20.4834 18.6115 20.4834Z" fill="#002A4E"/>
<path d="M15.0835 18.0001L13.7518 19.4401L13.32 19.0084C12.9966 18.6849 12.4566 18.6484 12.1317 18.9718C11.8083 19.2953 11.7718 19.8352 12.0952 20.1601L13.1386 21.2767C13.2821 21.4567 13.5352 21.5284 13.7503 21.5284C13.9669 21.5284 14.2186 21.4201 14.362 21.2767L16.3055 19.1884C16.6289 18.865 16.5937 18.325 16.2689 18.0001C15.9117 17.6401 15.4083 17.6401 15.0834 18.0001L15.0835 18.0001Z" fill="#002A4E"/>
<path d="M31.0687 4.17676H12.3854C9.57711 4.17676 7.30868 6.44505 7.30868 9.25348V23.7968H1.72868C1.26039 23.7968 0.900391 24.1568 0.900391 24.625V26.7485C0.900391 29.5568 3.16868 31.8252 5.97711 31.8252H24.6604C26.8921 31.8252 28.692 30.0252 28.692 27.7936V12.4921H34.2353C34.7036 12.4921 35.0636 12.1321 35.0636 11.6638V8.20725C35.1002 5.97694 33.3002 4.17705 31.0683 4.17705L31.0687 4.17676ZM5.97704 30.1684C4.10533 30.1684 2.55704 28.6567 2.55704 26.7484V25.4884H20.6287V27.7918C20.6287 28.6552 20.917 29.4835 21.3853 30.1318H5.97689L5.97704 30.1684ZM27.037 8.2084V27.8284C27.037 29.125 25.9936 30.1684 24.697 30.1684C23.4005 30.1684 22.357 29.125 22.357 27.8284V24.6601C22.357 24.1918 21.997 23.8318 21.5288 23.8318H8.96403V9.25182C8.96403 7.38011 10.4757 5.83182 12.384 5.83182H27.8273C27.3239 6.51665 27.037 7.3084 27.037 8.2084H27.037ZM33.4087 10.8001H28.7287V8.2084C28.7287 6.91182 29.7721 5.8684 31.0687 5.8684C32.3653 5.8684 33.4087 6.91182 33.4087 8.2084V10.8001Z" fill="#002A4E"/>
</svg>
