<svg xmlns="http://www.w3.org/2000/svg" width="32.72" height="32.72" viewBox="0 0 32.72 32.72"><g transform="translate(-0.64 -0.64)"><path d="M.82,17A16.171,16.171,0,0,0,2.6,24.394a4.693,4.693,0,0,0,0,6.629l.127-.127-.127.127a5.29,5.29,0,0,0,2,1.083,18.644,18.644,0,0,0,2.655.647,34.5,34.5,0,0,0,3.511.427h.036a.579.579,0,0,0,.578-.617,34.53,34.53,0,0,0-.427-3.51,18.635,18.635,0,0,0-.647-2.655,5.29,5.29,0,0,0-1.083-2L9.1,24.52l.127-.127a4.694,4.694,0,0,0-5.694-.723A15.023,15.023,0,1,1,17,32.02a.58.58,0,1,0,0,1.16A16.18,16.18,0,0,0,17.208.822v0H17A16.2,16.2,0,0,0,.82,17Zm3.273,7.691a3.517,3.517,0,0,1,1.792-.509h.034a3.514,3.514,0,0,1,2.495,1.032,3.606,3.606,0,0,1,.7,1.245,13.759,13.759,0,0,1,.534,1.9,31.8,31.8,0,0,1,.535,3.611,31.834,31.834,0,0,1-3.611-.535,13.747,13.747,0,0,1-1.9-.533,3.6,3.6,0,0,1-1.245-.7l-.127.127.127-.127a3.531,3.531,0,0,1-.221-4.742,16.058,16.058,0,0,0,.971,1.407v2.3a.58.58,0,0,0,1.16,0v-.952A16.318,16.318,0,0,0,8.395,30.7h0a.58.58,0,0,0,.618-.982h0a15.122,15.122,0,0,1-3.107-2.6H7.378a.58.58,0,1,0,0-1.16H4.945A15.006,15.006,0,0,1,4.093,24.691Z" fill="#002a4e" stroke="#002a4e" stroke-width="0.36"/><path d="M20.547,17.95l-.026.178a5.759,5.759,0,0,1,3.933,3.408,8.565,8.565,0,0,1-6.082,3.931,6.213,6.213,0,0,0-.294-1.582,7.63,7.63,0,0,0-.321-.856,6.934,6.934,0,0,1-.313-1.46,3.479,3.479,0,0,1,.53-2.49l-.142-.111.142.111a2.342,2.342,0,0,1,2.458-.971h0a.651.651,0,0,0,.087.02Zm0,0a.507.507,0,0,1-.066-.016l4.178,3.613A5.961,5.961,0,0,0,20.547,17.95ZM15.672,8.593a4,4,0,0,1,1.1,2.008,2.2,2.2,0,0,1-.431,1.7,9.676,9.676,0,0,0-1.163,1.8,4.585,4.585,0,0,0-.3,1.7Zm0,0a8.484,8.484,0,0,1,3.867.183A4.631,4.631,0,0,0,18.4,9.92a2.3,2.3,0,0,0-.264,2.189h0a2.462,2.462,0,0,0,1.047,1.337,2.839,2.839,0,0,0,1.131.3h.01a1.63,1.63,0,0,1,1.047.365,3.871,3.871,0,0,0,2.659,1.044,4.387,4.387,0,0,0,1.46-.256,8.525,8.525,0,0,1-.4,5.389,6.721,6.721,0,0,0-4.371-3.306,3.489,3.489,0,0,0-3.668,1.378,4.541,4.541,0,0,0-.78,3.23,7.822,7.822,0,0,0,.4,1.873h0l0,.01h0a7.046,7.046,0,0,1,.282.754,4.946,4.946,0,0,1,.245,1.315,8.555,8.555,0,0,1-7.427-4.331m5.89-12.624L9.782,21.216m0,0a4.943,4.943,0,0,0,4.3-2.278,6.685,6.685,0,0,0,.789-3.147h0Zm7.433,5.489c.11,0,.219,0,.328-.006v0l.217-.012a9.715,9.715,0,0,0,7.868-4.863l.005-.009.011-.019.007-.014A9.688,9.688,0,0,0,21.129,8.121h0l-.007,0h0L21.091,8.1A9.7,9.7,0,0,0,8.305,20.849a.432.432,0,0,0,.022.048A9.719,9.719,0,0,0,17.215,26.705ZM8.666,17a8.56,8.56,0,0,1,5.7-8.057,5.636,5.636,0,0,1,.689.7,2.5,2.5,0,0,1,.575,1.133,1.056,1.056,0,0,1-.215.828A10.609,10.609,0,0,0,14.1,13.66a5.7,5.7,0,0,0-.383,2.076,5.1,5.1,0,0,1-.881,2.957,4.281,4.281,0,0,1-3.6,1.376A8.5,8.5,0,0,1,8.666,17Zm16.471-3.2a2.8,2.8,0,0,1-2.977-.54,2.731,2.731,0,0,0-1.7-.66h0a1.745,1.745,0,0,1-.718-.173,1.372,1.372,0,0,1-.52-.739,1.414,1.414,0,0,1,.48-1.525,5.233,5.233,0,0,1,1.2-.87A8.593,8.593,0,0,1,25.137,13.8Z" fill="#002a4e" stroke="#002a4e" stroke-width="0.36"/></g></svg>