<svg width="23" height="23" viewBox="0 0 23 23" fill="none" xmlns="http://www.w3.org/2000/svg">
<path fill-rule="evenodd" clip-rule="evenodd" d="M0.5 11.25C0.5 5.06256 5.56256 0 11.75 0C17.9374 0 23 5.02512 23 11.25C23 17.4749 17.9749 22.5 11.75 22.5C5.52512 22.5 0.5 17.4374 0.5 11.25ZM2.37512 11.2502C2.37512 16.4251 6.57512 20.6251 11.75 20.6251C16.9249 20.6251 21.1249 16.4251 21.1249 11.2502C21.1249 6.07536 16.9249 1.87536 11.75 1.87536C6.57512 1.87536 2.37512 6.07536 2.37512 11.2502ZM16.7125 11.875C17.2374 11.875 17.65 11.4625 17.65 10.9375C17.65 10.4125 17.2375 10 16.7125 10H12.5125H10.6375H6.43749C5.91251 10 5.5 10.4125 5.5 10.9375C5.5 11.4625 5.91249 11.875 6.43749 11.875H10.6375H12.5125H16.7125Z" fill="white"/>
</svg>
