<svg width="20" height="20" viewBox="0 0 20 20" fill="none" xmlns="http://www.w3.org/2000/svg">
<path d="M9.99957 0.260132C4.61997 0.260132 0.259766 4.62033 0.259766 9.99993C0.259766 15.3795 4.61997 19.7397 9.99957 19.7397C15.3792 19.7397 19.7394 15.3795 19.7394 9.99993C19.7394 4.62033 15.3792 0.260132 9.99957 0.260132ZM10.9199 14.4203H9.19957V12.9407H10.9199V14.4203ZM10.9394 10.9999V11.8398H9.19958V9.37957H10.0597C10.7801 9.37957 11.3597 8.79989 11.3597 8.07957C11.3597 7.35925 10.7801 6.77957 10.0597 6.77957C9.33942 6.77957 8.75974 7.35925 8.75974 8.07957H7.0199C7.0199 6.39989 8.38006 5.03977 10.0597 5.03977C11.7394 5.03977 13.0995 6.39993 13.0995 8.07957C13.0995 9.46003 12.1995 10.6202 10.9393 11L10.9394 10.9999Z" fill="#002A4E"/>
</svg>
