<svg width="22" height="22" viewBox="0 0 22 22" fill="none" xmlns="http://www.w3.org/2000/svg">
<path d="M18.4536 11.8045V20.4277H3.54554V11.8422L3.54746 11.837V11.8045C3.54746 11.5063 3.30562 11.2645 3.00746 11.2645C2.7093 11.2645 2.46746 11.5063 2.46746 11.8045V20.9677C2.46746 21.2671 2.70961 21.5077 3.00746 21.5077H18.9936C19.2915 21.5077 19.5336 21.2671 19.5336 20.9677V11.8045C19.5336 11.5063 19.2918 11.2645 18.9936 11.2645C18.6955 11.2645 18.4536 11.5063 18.4536 11.8045Z" fill="black" stroke="black" stroke-width="0.36"/>
<path d="M1.16973 12.1997C1.17868 12.1906 1.18734 12.1812 1.19568 12.1714L1.1971 12.1699L10.8833 1.63053L10.8833 1.63058L10.8865 1.62689C10.9142 1.59504 10.9551 1.57623 11.0001 1.57623C11.0451 1.57623 11.086 1.59503 11.1137 1.6269L11.1137 1.62694L11.117 1.63053L20.7999 12.1664C20.8939 12.279 21.0297 12.3487 21.1762 12.3598L21.1779 12.3599C21.3256 12.3696 21.4717 12.3195 21.5818 12.2179C21.6921 12.1161 21.7536 11.9739 21.755 11.8257C21.7564 11.6789 21.6978 11.5376 21.5935 11.4351L11.9141 0.901223C11.9138 0.900911 11.9135 0.900599 11.9132 0.900287C11.6804 0.640489 11.3488 0.492485 10.9999 0.492485C10.651 0.492485 10.3195 0.640497 10.0866 0.900294L0.406325 11.4351C0.302057 11.5376 0.243445 11.6789 0.244829 11.8257L0.424821 11.824L0.244829 11.8257C0.246226 11.9739 0.307796 12.1161 0.418054 12.2179M1.16973 12.1997L0.418054 12.2179M1.16973 12.1997L1.14361 12.2281H1.13945L1.16973 12.1997ZM0.418054 12.2179C0.41805 12.2179 0.418047 12.2179 0.418043 12.2179L0.54013 12.0856L0.418054 12.2179Z" fill="black" stroke="black" stroke-width="0.36"/>
</svg>