<svg width="20" height="20" viewBox="0 0 20 20" fill="none" xmlns="http://www.w3.org/2000/svg">
<path d="M19.8169 8.93312L17.9419 7.05812C17.6978 6.81399 17.3023 6.81399 17.0581 7.05812L15 9.11625V0.625C15 0.280762 14.7217 0 14.375 0H0.625C0.280762 0 0 0.280762 0 0.625V19.375C0 19.7192 0.280762 20 0.625 20H14.375C14.7217 20 15 19.7192 15 19.375V14.6338L19.8169 9.81694C20.061 9.5728 20.061 9.17731 19.8169 8.93312H19.8169ZM3.12506 3.125H11.8751V5H3.12506V3.125ZM3.12506 6.875H11.8751V8.75H3.12506V6.875ZM3.12506 10.625H10.0001V12.5H3.12506V10.625ZM10.9913 16.875H10.0001V15.8838L17.5001 8.38381L18.4913 9.375L10.9913 16.875Z" fill="#005C97"/>
</svg>