<svg width="24" height="24" viewBox="0 0 24 24" fill="none" xmlns="http://www.w3.org/2000/svg">
<path d="M12 0C5.38131 0 0 5.38131 0 12C0 18.6187 5.38131 24 12 24C18.6187 24 24 18.6187 24 12C24 5.38131 18.6187 0 12 0ZM17.3555 15.4105C17.5578 15.6128 17.5578 15.9158 17.3555 16.0924L16.0924 17.3556C15.8901 17.5579 15.5871 17.5579 15.4105 17.3556L11.9999 13.9451L8.58942 17.3556C8.38712 17.5579 8.08416 17.5579 7.90752 17.3556L6.64436 16.0924C6.44206 15.8901 6.44206 15.5872 6.64436 15.4105L10.0549 12L6.64436 8.58947C6.44206 8.38717 6.44206 8.08421 6.64436 7.90757L7.90752 6.64441C8.10982 6.44211 8.41278 6.44211 8.58942 6.64441L11.9999 10.0549L15.4105 6.64441C15.6128 6.44211 15.9157 6.44211 16.0924 6.64441L17.3555 7.90757C17.5578 8.10987 17.5578 8.41283 17.3555 8.58947L13.945 12L17.3555 15.4105Z" fill="#D23B37"/>
</svg>