<svg width="33" height="36" viewBox="0 0 33 36" fill="none" xmlns="http://www.w3.org/2000/svg">
<path d="M31.336 31.4844C31.2763 31.5006 31.2136 31.5003 31.1494 31.5002L19.2123 31.5924C19.0349 31.5941 18.864 31.5284 18.7316 31.4115L17.8018 30.5936C17.702 30.5057 17.6269 30.3906 17.5881 30.2641L17.306 29.347L16.6742 29.0878C16.369 28.9625 16.1883 28.6474 16.2346 28.3199L16.2623 28.1273L15.9172 27.9254L15.7712 27.9886C15.5504 28.0823 15.2995 28.0603 15.0983 27.9315L12.5234 26.2706C12.3166 26.1375 12.1927 25.9075 12.1943 25.6621L12.1993 24.4612C12.1995 24.2586 12.2868 24.0657 12.4364 23.9302L12.7568 23.6403L12.2681 23.4732C11.8953 23.346 11.6937 22.9433 11.8161 22.5688L12.0237 21.9292L11.4387 20.9809C11.3345 20.8126 11.3049 20.6078 11.3562 20.416C11.1152 20.4088 10.8877 20.2799 10.7599 20.0626L9.66239 18.2016C9.52861 17.9728 9.53013 17.6896 9.66657 17.4629L10.3136 16.3931L9.87441 14.9795L7.66046 13.8193C7.48041 13.7255 7.35007 13.5628 7.29755 13.3701L5.75474 7.70969L4.0904 7.14885C3.87223 7.07568 3.70242 6.90187 3.63364 6.6816L3.45181 6.10004L2.89288 5.83552C2.70234 5.74607 2.56127 5.57609 2.50618 5.37394L2.18297 4.18812C2.11678 3.94526 2.18193 3.68699 2.35513 3.50426C2.52833 3.3215 2.78351 3.24175 3.0282 3.29457C3.10874 3.31198 11.084 5.01081 13.6374 5.36298C16.1846 5.71378 23.147 6.0651 23.2165 6.06948C23.6127 6.08977 23.9169 6.42515 23.8993 6.82058L23.3158 20.0001L24.5838 22.1337C24.6185 22.1913 24.6432 22.2502 24.6606 22.3139L24.8218 22.9055L25.7685 23.3092C25.8742 23.3547 25.9674 23.424 26.0409 23.5119L28.7028 26.7378L29.3516 26.9793C29.5693 27.0614 29.7351 27.2421 29.7962 27.4659L30.031 28.3275L31.6331 30.2375C31.7318 30.3272 31.8082 30.4521 31.8459 30.5905C31.9505 30.9745 31.7267 31.378 31.3428 31.4826L31.336 31.4845L31.336 31.4844ZM19.4755 30.1462L29.6095 30.0645L28.8277 29.132C28.7591 29.0516 28.7104 28.9584 28.6831 28.858L28.5041 28.2014L28.0206 28.0212C27.9023 27.9777 27.7974 27.9028 27.7169 27.8052L25.0424 24.5651L23.937 24.0925C23.7326 24.0054 23.5819 23.8322 23.5238 23.6192L23.2968 22.7861L21.9675 20.5511C21.8954 20.4308 21.8604 20.2917 21.8673 20.1514L22.4283 7.47091C20.5615 7.37048 15.5825 7.08637 13.4377 6.79058C11.5854 6.5346 7.11409 5.62236 4.56911 5.09177C4.6431 5.17072 4.69797 5.26508 4.73088 5.3698L4.89768 5.90154L6.5768 6.46853C6.80595 6.54454 6.98044 6.73019 7.04331 6.96086L8.60457 12.689L10.8064 13.8423C10.9765 13.9315 11.1025 14.0837 11.1596 14.2664L11.784 16.2738C11.8448 16.47 11.8199 16.6837 11.7135 16.86L11.1218 17.8389L11.7021 18.8235L12.1925 18.6548C12.4468 18.5666 12.7306 18.6291 12.9242 18.8154C13.1192 19.0013 13.1926 19.2815 13.1159 19.54L12.8315 20.4964L13.4234 21.4545C13.535 21.634 13.5602 21.8545 13.4951 22.0544L13.4042 22.3357L14.3794 22.6676C14.6206 22.7505 14.8013 22.9534 14.8519 23.2034C14.9026 23.4534 14.8186 23.7124 14.6288 23.8822L13.6359 24.7795L13.6347 25.2725L15.557 26.5122L15.6848 26.457C15.8947 26.3663 16.1352 26.3823 16.3314 26.4979L17.4067 27.1275C17.6581 27.2747 17.7972 27.5603 17.7552 27.8502L17.7389 27.9669L18.1674 28.143C18.3673 28.2241 18.5196 28.3925 18.5829 28.5982L18.9049 29.6459L19.4755 30.1462Z" fill="#002A4E"/>
<path d="M7.30131 19.0243L7.4447 20.9033C7.45787 21.0746 7.34758 21.2315 7.1807 21.277L6.51723 21.4578L6.72284 22.2122C6.73245 22.2475 6.73491 22.2832 6.73774 22.3204L6.72462 22.6679C6.71978 22.8266 6.61036 22.96 6.45705 23.0017C6.44348 23.0054 6.42584 23.0103 6.41117 23.0099C6.23565 23.0344 6.07102 22.9277 6.01764 22.7586L5.37834 20.6751C5.35837 20.6018 5.36122 20.5267 5.3822 20.4539L5.45402 20.2361L5.01461 19.1695C4.99562 19.1265 4.98502 19.0769 4.98774 19.0281L5.00051 17.8717C5.00176 17.7373 5.07936 17.6156 5.2016 17.556C5.32383 17.4965 5.46357 17.5065 5.57616 17.588L7.15691 18.7619C7.23941 18.824 7.29563 18.918 7.30129 19.0243L7.30131 19.0243Z" fill="#002A4E"/>
<path d="M9.95369 20.3062L9.80214 20.9C9.77536 21.0049 9.70517 21.0896 9.60822 21.135C9.58972 21.1473 9.56936 21.1529 9.54766 21.1588C9.46761 21.1806 9.38016 21.1753 9.30333 21.1394L8.52267 20.7779C8.35668 20.7036 8.27555 20.5129 8.3296 20.3422L8.52123 19.7565C8.5543 19.6586 8.62486 19.5753 8.72156 19.5343C8.81826 19.4934 8.92446 19.498 9.01745 19.5397L9.75939 19.8928C9.91614 19.9652 9.99653 20.1371 9.95371 20.3062L9.95369 20.3062Z" fill="#002A4E"/>
<path d="M10.8995 23.1083L10.6337 23.9941C10.5998 24.1156 10.5004 24.2053 10.3823 24.2375C10.3552 24.2449 10.3215 24.2497 10.2877 24.2487L9.04044 24.2447C8.88146 24.2443 8.7389 24.133 8.69749 23.9811L8.47228 23.1548C8.42679 22.9879 8.506 22.8133 8.66031 22.7377L9.47834 22.3326C9.56641 22.2867 9.67483 22.2834 9.76597 22.3183L10.6822 22.6691C10.8575 22.735 10.9554 22.9284 10.8995 23.1083L10.8995 23.1083Z" fill="#002A4E"/>
<path d="M17.9058 34.5197C17.7701 34.5567 17.6237 34.5543 17.4835 34.5051L15.6794 33.8861L15.4271 33.9549C15.233 34.0078 15.0267 33.978 14.8563 33.8714L11.8235 31.9797C11.6689 31.8834 11.5566 31.7332 11.5089 31.5582L11.3687 31.044L10.0764 28.8426C9.90658 28.5565 9.95721 28.1915 10.1959 27.9603L10.9618 27.2195C11.0912 27.0953 11.2596 27.0232 11.4389 27.018L12.1279 26.995C12.2564 26.9905 12.3843 27.0213 12.4972 27.0823L15.5173 28.7297C15.6595 28.8076 15.7719 28.9314 15.8362 29.0815L16.3123 30.2082L17.7209 31.2425C17.8141 31.3118 17.8897 31.402 17.941 31.5046L18.6322 32.9122C18.727 33.105 18.7301 33.3301 18.6421 33.526L18.3739 34.1195C18.281 34.3241 18.1066 34.4649 17.9057 34.5196L17.9058 34.5197ZM16.5226 32.6535L16.9758 32.8084L16.7246 32.2982L15.2976 31.25C15.1936 31.1734 15.1116 31.0704 15.0613 30.95L14.6056 29.8717L11.9776 28.4381L11.7625 28.4457L11.6033 28.5999L12.6582 30.3952C12.6911 30.4518 12.7159 30.5107 12.7329 30.5731L12.8243 30.9082L15.3509 32.4831L15.7457 32.3755C16.0442 32.2941 16.3521 32.4128 16.5226 32.6535L16.5226 32.6535Z" fill="#002A4E"/>
</svg>
