<svg width="30" height="36" viewBox="0 0 30 36" fill="none" xmlns="http://www.w3.org/2000/svg">
<mask id="path-1-inside-1_1029_4307" fill="white">
<path fill-rule="evenodd" clip-rule="evenodd" d="M6.74222 21.4679C11.3661 25.1009 14.9991 29.7248 14.9991 29.7248C14.9991 29.7248 14.3385 22.1284 11.6963 14.5321C9.38442 6.27523 4.10001 0 4.10001 0C4.10001 0 3.76976 3.63303 2.77893 8.58715C2.11838 13.211 0.136719 16.844 0.136719 16.844C0.136719 16.844 2.11837 17.8349 6.74222 21.4679ZM16.9815 24.1101C17.6421 30.055 16.9815 36 16.9815 36C16.9815 36 21.9357 30.3853 25.899 22.4587C29.532 15.1927 29.8623 9.24772 29.8623 9.24772C29.8623 9.24772 26.8898 11.2294 22.5963 13.211C18.9632 15.1927 15.6605 16.1835 15.6605 16.1835C15.6605 16.1835 16.321 18.1651 16.9815 24.1101Z"/>
</mask>
<path d="M14.9991 29.7248L13.4265 30.9604L17.573 36.2378L16.9916 29.5515L14.9991 29.7248ZM6.74222 21.4679L5.50658 23.0405L6.74222 21.4679ZM11.6963 14.5321L9.77042 15.0714L9.78707 15.1308L9.80735 15.1892L11.6963 14.5321ZM4.10001 0L5.62983 -1.28827L2.54218 -4.95486L2.10822 -0.18106L4.10001 0ZM2.77893 8.58715L0.817768 8.19492L0.806881 8.24936L0.799031 8.30431L2.77893 8.58715ZM0.136719 16.844L-1.61907 15.8863L-2.6116 17.7059L-0.757707 18.6329L0.136719 16.844ZM16.9815 36L14.9938 35.7791L14.2951 42.0675L18.4812 37.3232L16.9815 36ZM16.9815 24.1101L18.9693 23.8892L16.9815 24.1101ZM25.899 22.4587L27.6879 23.3531V23.3531L25.899 22.4587ZM29.8623 9.24772L31.8592 9.35865L32.0811 5.36482L28.7529 7.58362L29.8623 9.24772ZM22.5963 13.211L21.7581 11.3951L21.6973 11.4232L21.6385 11.4552L22.5963 13.211ZM15.6605 16.1835L15.0858 14.2678L13.1112 14.8602L13.7631 16.8159L15.6605 16.1835ZM14.9991 29.7248C16.5717 28.4891 16.5716 28.4889 16.5714 28.4887C16.5713 28.4886 16.5711 28.4884 16.571 28.4882C16.5707 28.4878 16.5703 28.4873 16.5699 28.4868C16.5691 28.4858 16.568 28.4844 16.5668 28.4828C16.5642 28.4796 16.5608 28.4753 16.5565 28.4698C16.5479 28.459 16.5358 28.4438 16.5203 28.4243C16.4893 28.3855 16.4446 28.3298 16.3869 28.2586C16.2714 28.1164 16.1038 27.9123 15.889 27.6572C15.4598 27.1476 14.841 26.4329 14.0742 25.6021C12.5472 23.9479 10.4032 21.8009 7.97786 19.8952L5.50658 23.0405C7.70507 24.7679 9.68953 26.7493 11.135 28.3153C11.8544 29.0947 12.4329 29.763 12.8294 30.2338C13.0275 30.469 13.1797 30.6545 13.281 30.7793C13.3317 30.8417 13.3696 30.8889 13.394 30.9196C13.4062 30.9349 13.4151 30.9461 13.4206 30.9529C13.4233 30.9564 13.4251 30.9587 13.4261 30.96C13.4266 30.9606 13.4269 30.9609 13.4269 30.961C13.427 30.9611 13.4269 30.961 13.4269 30.9609C13.4268 30.9609 13.4267 30.9607 13.4267 30.9607C13.4266 30.9606 13.4265 30.9604 14.9991 29.7248ZM9.80735 15.1892C11.0811 18.8513 11.884 22.5359 12.3681 25.3197C12.6095 26.7076 12.77 27.8621 12.8699 28.6657C12.9197 29.0673 12.9544 29.3807 12.9764 29.5911C12.9873 29.6963 12.9951 29.7757 13.0001 29.8275C13.0025 29.8534 13.0043 29.8723 13.0054 29.8842C13.0059 29.8901 13.0063 29.8942 13.0065 29.8965C13.0066 29.8977 13.0067 29.8984 13.0067 29.8987C13.0067 29.8988 13.0067 29.8988 13.0067 29.8987C13.0067 29.8986 13.0067 29.8985 13.0067 29.8984C13.0066 29.8982 13.0066 29.898 14.9991 29.7248C16.9916 29.5515 16.9916 29.5512 16.9915 29.5509C16.9915 29.5508 16.9915 29.5504 16.9915 29.5501C16.9914 29.5496 16.9914 29.5489 16.9913 29.5481C16.9911 29.5465 16.991 29.5444 16.9907 29.5419C16.9903 29.5369 16.9897 29.53 16.9889 29.5213C16.9873 29.5039 16.985 29.4793 16.982 29.4477C16.976 29.3845 16.967 29.2933 16.9548 29.176C16.9303 28.9413 16.8927 28.6018 16.8393 28.1726C16.7327 27.3145 16.563 26.0951 16.309 24.6344C15.8023 21.721 14.9538 17.8093 13.5853 13.8751L9.80735 15.1892ZM4.10001 0C2.57019 1.28827 2.56994 1.28797 2.5697 1.2877C2.56965 1.28764 2.56944 1.28738 2.56934 1.28726C2.56914 1.28702 2.56901 1.28687 2.56897 1.28682C2.56888 1.28671 2.56911 1.28698 2.56964 1.28763C2.57072 1.28892 2.57305 1.29171 2.5766 1.29598C2.58369 1.30452 2.59565 1.31899 2.61224 1.33925C2.64541 1.37978 2.69704 1.44345 2.76514 1.52924C2.90137 1.70086 3.10326 1.96064 3.35491 2.30025C3.85866 2.98006 4.55926 3.9763 5.33068 5.22244C6.88031 7.72568 8.6816 11.1827 9.77042 15.0714L13.6223 13.9928C12.3992 9.62462 10.4023 5.81561 8.73174 3.11702C7.89306 1.76223 7.12806 0.673608 6.56873 -0.0812137C6.28885 -0.45892 6.05983 -0.753895 5.89804 -0.957708C5.81713 -1.05964 5.75297 -1.13884 5.7076 -1.19427C5.68492 -1.22199 5.66693 -1.24376 5.65388 -1.25947C5.64736 -1.26733 5.64207 -1.27367 5.63805 -1.27847C5.63604 -1.28087 5.63435 -1.28289 5.63298 -1.28453C5.63229 -1.28534 5.63169 -1.28606 5.63116 -1.28669C5.6309 -1.287 5.63057 -1.2874 5.63044 -1.28755C5.63012 -1.28792 5.62983 -1.28827 4.10001 0ZM4.74009 8.97939C5.24531 6.4533 5.58214 4.26412 5.79302 2.70361C5.89852 1.92288 5.97266 1.29821 6.02069 0.865923C6.04471 0.649746 6.06221 0.481576 6.07384 0.365946C6.07966 0.308127 6.08401 0.263435 6.08697 0.232435C6.08846 0.216934 6.08959 0.204856 6.09039 0.19627C6.09079 0.191977 6.09111 0.188557 6.09134 0.18602C6.09146 0.184751 6.09156 0.183702 6.09163 0.182875C6.09167 0.182462 6.0917 0.182104 6.09173 0.181801C6.09174 0.18165 6.09176 0.181465 6.09177 0.181389C6.09178 0.181218 6.0918 0.18106 4.10001 0C2.10822 -0.18106 2.10823 -0.18119 2.10824 -0.181306C2.10825 -0.181326 2.10826 -0.181428 2.10826 -0.181469C2.10827 -0.18155 2.10827 -0.181576 2.10827 -0.181547C2.10826 -0.181489 2.10824 -0.181212 2.10819 -0.180715C2.1081 -0.179723 2.10793 -0.177856 2.10767 -0.175124C2.10716 -0.169659 2.10632 -0.160733 2.10515 -0.148414C2.10279 -0.123778 2.09908 -0.0855787 2.09393 -0.0343805C2.08363 0.0680226 2.06758 0.222387 2.04516 0.424215C2.0003 0.827939 1.92996 1.42116 1.82904 2.16795C1.62708 3.66249 1.30338 5.76688 0.817768 8.19492L4.74009 8.97939ZM0.136719 16.844C1.89251 17.8017 1.8927 17.8014 1.8929 17.801C1.89298 17.8009 1.89318 17.8005 1.89334 17.8002C1.89365 17.7997 1.89398 17.799 1.89435 17.7984C1.89508 17.797 1.89594 17.7954 1.89691 17.7936C1.89886 17.79 1.90129 17.7855 1.90418 17.7802C1.90995 17.7694 1.91758 17.7551 1.92696 17.7374C1.94572 17.702 1.97149 17.6527 2.00345 17.5902C2.06736 17.4654 2.15616 17.2877 2.26323 17.0622C2.47715 16.6119 2.76529 15.9686 3.07413 15.1744C3.68888 13.5937 4.40071 11.3768 4.75883 8.87L0.799031 8.30431C0.496594 10.4214 -0.112673 12.3329 -0.65389 13.7246C-0.923035 14.4167 -1.1716 14.9707 -1.34988 15.346C-1.43891 15.5334 -1.5101 15.6757 -1.55714 15.7675C-1.58065 15.8135 -1.59809 15.8468 -1.60869 15.8668C-1.61398 15.8768 -1.61756 15.8835 -1.61933 15.8868C-1.62021 15.8884 -1.62064 15.8892 -1.6206 15.8891C-1.62058 15.8891 -1.62044 15.8888 -1.62019 15.8884C-1.62006 15.8881 -1.61991 15.8879 -1.61972 15.8875C-1.61963 15.8873 -1.61946 15.887 -1.61942 15.887C-1.61925 15.8866 -1.61907 15.8863 0.136719 16.844ZM7.97786 19.8952C5.62681 18.048 3.92831 16.8574 2.80002 16.1196C2.23567 15.7506 1.8131 15.4944 1.52203 15.3256C1.37647 15.2411 1.26365 15.1785 1.18231 15.1345C1.14163 15.1125 1.10881 15.0951 1.08367 15.0821C1.0711 15.0755 1.06046 15.07 1.05171 15.0656C1.04733 15.0633 1.04344 15.0614 1.04001 15.0596C1.0383 15.0588 1.0367 15.058 1.03522 15.0572C1.03449 15.0569 1.03378 15.0565 1.0331 15.0562C1.03276 15.056 1.03227 15.0557 1.0321 15.0557C1.03162 15.0554 1.03114 15.0552 0.136719 16.844C-0.757707 18.6329 -0.758165 18.6327 -0.758616 18.6324C-0.758756 18.6324 -0.759198 18.6321 -0.759477 18.632C-0.760036 18.6317 -0.760564 18.6315 -0.76106 18.6312C-0.762053 18.6307 -0.762921 18.6303 -0.763664 18.6299C-0.76515 18.6291 -0.766136 18.6286 -0.766619 18.6284C-0.767585 18.6279 -0.766541 18.6284 -0.763466 18.63C-0.757314 18.6332 -0.74305 18.6407 -0.72051 18.6529C-0.675419 18.6773 -0.597294 18.7205 -0.484836 18.7857C-0.259845 18.9162 0.101985 19.1347 0.611027 19.4675C1.62953 20.1335 3.23378 21.2547 5.50658 23.0405L7.97786 19.8952ZM16.9815 36C18.9693 36.2209 18.9693 36.2206 18.9694 36.2204C18.9694 36.2203 18.9694 36.22 18.9694 36.2197C18.9695 36.2193 18.9695 36.2187 18.9696 36.2181C18.9698 36.2168 18.9699 36.2151 18.9702 36.2131C18.9706 36.2091 18.9712 36.2036 18.9719 36.1967C18.9734 36.1829 18.9755 36.1635 18.9781 36.1386C18.9833 36.0887 18.9905 36.0169 18.9994 35.9246C19.0172 35.7401 19.0414 35.4735 19.0682 35.1364C19.1216 34.4627 19.1854 33.5054 19.2279 32.3584C19.3125 30.0735 19.3143 26.9946 18.9693 23.8892L14.9938 24.331C15.3093 27.1706 15.3111 30.0366 15.2306 32.2104C15.1905 33.2927 15.1304 34.1932 15.0807 34.82C15.0558 35.1332 15.0336 35.3774 15.0178 35.5412C15.01 35.6231 15.0037 35.6849 14.9995 35.725C14.9974 35.7451 14.9959 35.7598 14.9949 35.7688C14.9944 35.7734 14.9941 35.7765 14.9939 35.7782C14.9938 35.7791 14.9937 35.7796 14.9937 35.7798C14.9937 35.7798 14.9937 35.7798 14.9937 35.7797C14.9937 35.7797 14.9937 35.7795 14.9937 35.7795C14.9937 35.7793 14.9938 35.7791 16.9815 36ZM24.1101 21.5643C22.1902 25.4043 20.024 28.6952 18.3342 31.0288C17.4907 32.1935 16.7698 33.1145 16.2631 33.7405C16.0098 34.0533 15.8104 34.2921 15.6763 34.4503C15.6092 34.5295 15.5585 34.5884 15.5256 34.6264C15.5092 34.6454 15.4972 34.6592 15.4899 34.6676C15.4862 34.6718 15.4837 34.6747 15.4823 34.6762C15.4816 34.677 15.4813 34.6774 15.4812 34.6775C15.4812 34.6776 15.4812 34.6775 15.4813 34.6774C15.4814 34.6773 15.4815 34.6772 15.4815 34.6771C15.4817 34.677 15.4819 34.6768 16.9815 36C18.4812 37.3232 18.4814 37.323 18.4817 37.3227C18.4818 37.3226 18.482 37.3223 18.4822 37.3221C18.4826 37.3216 18.4831 37.3211 18.4837 37.3204C18.4848 37.3192 18.4862 37.3175 18.488 37.3156C18.4914 37.3116 18.4961 37.3063 18.5019 37.2997C18.5135 37.2864 18.5298 37.2676 18.5506 37.2436C18.5923 37.1955 18.6519 37.1261 18.728 37.0362C18.8803 36.8564 19.0989 36.5946 19.372 36.2573C19.9181 35.5827 20.6834 34.6046 21.5739 33.3749C23.352 30.9194 25.6446 27.4398 27.6879 23.3531L24.1101 21.5643ZM29.8623 9.24772C27.8654 9.13678 27.8654 9.13627 27.8654 9.13579C27.8654 9.13566 27.8655 9.1352 27.8655 9.13494C27.8655 9.13441 27.8655 9.13398 27.8656 9.13363C27.8656 9.13294 27.8656 9.1326 27.8656 9.13262C27.8656 9.13266 27.8655 9.13411 27.8653 9.13696C27.865 9.14267 27.8642 9.15398 27.863 9.17074C27.8606 9.20426 27.8562 9.2596 27.8493 9.33563C27.8354 9.48772 27.8111 9.72242 27.7708 10.0308C27.6901 10.6479 27.5453 11.5583 27.2915 12.691C26.7832 14.9588 25.8409 18.1028 24.1101 21.5643L27.6879 23.3531C29.5901 19.5486 30.6295 16.0871 31.1946 13.5659C31.4774 12.3041 31.6423 11.2742 31.737 10.5495C31.7844 10.187 31.8144 9.90049 31.8327 9.69908C31.8419 9.59836 31.8482 9.51888 31.8524 9.46177C31.8545 9.43322 31.856 9.41025 31.8571 9.39302C31.8577 9.3844 31.8581 9.37722 31.8585 9.37149C31.8586 9.36862 31.8588 9.36611 31.8589 9.36398C31.859 9.36291 31.859 9.36193 31.8591 9.36104C31.8591 9.3606 31.8591 9.36 31.8592 9.35978C31.8592 9.3592 31.8592 9.35865 29.8623 9.24772ZM23.4344 15.0269C25.6499 14.0044 27.5226 12.9829 28.8436 12.2158C29.5049 11.8318 30.0301 11.5104 30.393 11.2829C30.5746 11.1691 30.7157 11.0787 30.8132 11.0156C30.8619 10.984 30.8998 10.9592 30.9263 10.9418C30.9396 10.9331 30.9501 10.9262 30.9576 10.9211C30.9614 10.9186 30.9645 10.9166 30.9668 10.915C30.968 10.9143 30.969 10.9136 30.9698 10.9131C30.9702 10.9128 30.9706 10.9126 30.9709 10.9124C30.971 10.9122 30.9713 10.9121 30.9713 10.9121C30.9715 10.9119 30.9717 10.9118 29.8623 9.24772C28.7529 7.58362 28.753 7.58351 28.7532 7.58342C28.7532 7.58339 28.7534 7.58331 28.7534 7.58326C28.7536 7.58317 28.7536 7.58312 28.7537 7.58309C28.7538 7.58303 28.7537 7.58309 28.7534 7.58327C28.7529 7.58364 28.7516 7.58447 28.7496 7.58577C28.7457 7.58838 28.7389 7.59285 28.7294 7.59912C28.7103 7.61167 28.6801 7.63143 28.6392 7.65792C28.5573 7.71091 28.4327 7.79079 28.2685 7.89374C27.9399 8.09969 27.4536 8.39753 26.8351 8.75667C25.5965 9.47585 23.8362 10.436 21.7581 11.3951L23.4344 15.0269ZM15.6605 16.1835C16.2351 18.0991 16.2354 18.0991 16.2357 18.099C16.2358 18.099 16.236 18.0989 16.2362 18.0988C16.2366 18.0987 16.2371 18.0986 16.2376 18.0984C16.2386 18.0981 16.2399 18.0977 16.2413 18.0973C16.2441 18.0964 16.2478 18.0953 16.2522 18.094C16.2611 18.0913 16.2732 18.0876 16.2883 18.0829C16.3186 18.0736 16.3612 18.0603 16.4154 18.0431C16.5237 18.0086 16.6784 17.9584 16.8737 17.8924C17.2641 17.7604 17.818 17.5649 18.488 17.3055C19.8243 16.7882 21.6414 16.01 23.554 14.9668L21.6385 11.4552C19.9181 12.3937 18.2673 13.1017 17.044 13.5752C16.4342 13.8113 15.9352 13.9873 15.5928 14.103C15.4217 14.1609 15.2901 14.2035 15.2036 14.231C15.1603 14.2448 15.1284 14.2547 15.1085 14.2609C15.0986 14.2639 15.0917 14.266 15.0878 14.2672C15.0859 14.2678 15.0848 14.2681 15.0844 14.2682C15.0843 14.2683 15.0843 14.2683 15.0845 14.2682C15.0846 14.2682 15.0848 14.2681 15.085 14.2681C15.0851 14.268 15.0853 14.268 15.0853 14.268C15.0855 14.2679 15.0858 14.2678 15.6605 16.1835ZM18.9693 23.8892C18.6338 20.8694 18.2953 18.8296 18.0345 17.5252C17.9039 16.8726 17.7925 16.4024 17.71 16.0841C17.6687 15.9249 17.6346 15.8034 17.6089 15.7159C17.596 15.6722 17.5852 15.6369 17.5767 15.6096C17.5724 15.5959 17.5687 15.5842 17.5655 15.5745C17.5639 15.5697 17.5625 15.5653 17.5612 15.5614C17.5606 15.5594 17.56 15.5576 17.5594 15.5559C17.5591 15.555 17.5589 15.5542 17.5586 15.5534C17.5585 15.553 17.5583 15.5524 17.5582 15.5522C17.558 15.5516 17.5578 15.5511 15.6605 16.1835C13.7631 16.8159 13.7629 16.8154 13.7627 16.8148C13.7627 16.8147 13.7625 16.8141 13.7624 16.8138C13.7621 16.8131 13.7619 16.8125 13.7617 16.8119C13.7613 16.8106 13.761 16.8095 13.7606 16.8085C13.76 16.8066 13.7595 16.8051 13.7592 16.8042C13.7586 16.8023 13.7587 16.8025 13.7594 16.8048C13.7609 16.8095 13.7649 16.8225 13.7714 16.8446C13.7844 16.8887 13.807 16.9685 13.838 17.0879C13.9 17.327 13.9949 17.7237 14.1121 18.3097C14.3467 19.4823 14.6688 21.4059 14.9938 24.331L18.9693 23.8892Z" fill="#005C97" mask="url(#path-1-inside-1_1029_4307)"/>
</svg>
