<svg width="36" height="36" viewBox="0 0 36 36" fill="none" xmlns="http://www.w3.org/2000/svg">
<path fill-rule="evenodd" clip-rule="evenodd" d="M24.482 29.5224C24.482 29.1246 24.8042 28.8023 25.2021 28.8023C25.3929 28.8023 25.5765 28.8779 25.7115 29.013C25.8465 29.148 25.9221 29.3316 25.9221 29.5224V32.4027C25.9221 32.5935 25.8466 32.7771 25.7115 32.9121C25.5765 33.0471 25.3929 33.1227 25.2021 33.1227H0.720073C0.529245 33.1227 0.345628 33.0471 0.210616 32.9121C0.0756047 32.7771 0 32.5935 0 32.4027V0.720059C0 0.322227 0.322227 0 0.720059 0H18.0015C18.1923 0 18.3741 0.0774071 18.5091 0.212419L25.7097 7.41301C25.8447 7.54804 25.9221 7.72985 25.9221 7.92067V11.521C25.9221 11.9188 25.5999 12.241 25.2021 12.241C24.8042 12.241 24.482 11.9188 24.482 11.521V8.21947L17.7026 1.44009H1.44014V31.6826H24.482V29.5224ZM35.7907 15.0265L30.6961 9.93192C30.4153 9.6529 29.9617 9.6529 29.6809 9.93192L18.477 21.1358C18.3924 21.2222 18.3294 21.3284 18.2934 21.4454L16.2592 28.5741C16.1818 28.8298 16.2538 29.1069 16.4428 29.2942C16.5778 29.4292 16.7596 29.5066 16.9505 29.5066C17.0171 29.5066 17.0837 29.4958 17.1485 29.4778L24.2772 27.4436C24.3942 27.4094 24.5004 27.3464 24.5868 27.26L35.7907 16.0561C36.0697 15.7753 36.0697 15.3216 35.7907 15.0408L35.7907 15.0265ZM18.0014 27.7212L19.348 23.0156L22.7071 26.3747L18.0014 27.7212ZM24.0822 25.7158L20.003 21.6439L30.1885 11.4621L34.2604 15.5341L24.0822 25.7158ZM18.9342 12.6195L11.6654 19.8883L6.98517 15.208C6.70075 14.9506 6.26332 14.9614 5.99331 15.235C5.72149 15.5068 5.71249 15.9425 5.96991 16.2269L11.1617 21.415C11.4425 21.694 11.8962 21.694 12.177 21.415L19.9536 13.6384C20.211 13.3539 20.202 12.9183 19.9302 12.6465C19.6602 12.3729 19.2227 12.3621 18.9384 12.6195H18.9342Z" fill="black"/>
</svg>
