<svg width="32" height="30" viewBox="0 0 32 30" fill="none" xmlns="http://www.w3.org/2000/svg">
<path fill-rule="evenodd" clip-rule="evenodd" d="M3.0825 10.913C2.20901 10.913 1.35835 10.834 0.583189 10.7006C0.208337 10.6356 -0.0471239 10.2845 0.00730426 9.90699C0.626205 5.6572 1.85962 2.92262 3.77953 1.547C5.04367 0.640153 6.58609 0.346943 8.36554 0.675268C8.74654 0.745498 8.99937 1.11157 8.92914 1.49345C8.85891 1.87532 8.49371 2.12727 8.11096 2.05704C6.70285 1.79719 5.55371 2.00349 4.59771 2.68823C3.12463 3.74344 2.08699 6.00484 1.50759 9.4145C3.83308 9.68401 6.84945 9.40397 8.58589 7.77112C9.58813 6.82845 10.0864 5.5062 10.0726 3.8317C8.42055 4.55569 6.92333 5.63209 5.69855 7.00795C5.44046 7.29765 4.99713 7.32311 4.70744 7.06589C4.41774 6.8078 4.39228 6.36447 4.6495 6.07477C6.23639 4.29069 8.23588 2.96003 10.4402 2.1758C10.4662 2.16482 10.493 2.15534 10.5206 2.14748C11.9925 1.63382 13.5543 1.36323 15.1445 1.36323C21.4599 1.36323 27.0318 5.61301 28.6945 11.6976C28.7972 12.0715 28.5759 12.4578 28.202 12.5605C28.1396 12.5772 28.0773 12.586 28.0167 12.586V12.5851C27.7077 12.5851 27.4251 12.3797 27.3399 12.068C25.8431 6.59272 20.8287 2.76782 15.1445 2.76782C13.8843 2.76782 12.644 2.95676 11.4611 3.31765C11.5973 5.63141 10.9555 7.47263 9.54891 8.79472C7.8871 10.3573 5.40447 10.913 3.08425 10.913H3.0825ZM20.0594 27.0607C20.0222 27.0726 19.9862 27.0876 19.9515 27.1055C18.4535 27.7201 16.8257 28.0504 15.1446 28.0504C8.17427 28.0504 2.5032 22.3793 2.5032 15.409C2.5032 14.9815 2.52515 14.5505 2.56729 14.1282C2.60591 13.7419 2.32499 13.3978 1.93873 13.3592C1.55334 13.3206 1.20834 13.6015 1.16971 13.9878C1.12231 14.4565 1.0986 14.935 1.0986 15.409C1.0986 23.1536 7.39998 29.455 15.1446 29.455H15.1455C16.9431 29.455 18.6858 29.1151 20.298 28.4809C21.7737 28.9754 23.2632 29.2316 24.6257 29.2316H24.6265C25.0953 29.2316 25.5501 29.2009 25.9837 29.1394C28.0187 28.8506 29.5479 27.9095 30.4082 26.418C31.2984 24.8738 31.3028 22.8969 31.3072 20.804C31.3107 18.8709 31.3151 16.8729 31.9638 14.9275C32.0437 14.6888 31.9893 14.4263 31.8225 14.2384C31.6548 14.0505 31.4002 13.9671 31.1544 14.0181C25.903 15.1119 20.188 19.4047 19.7122 24.6948C19.6771 25.081 19.9624 25.4216 20.3487 25.4568C20.7332 25.4919 21.0756 25.2066 21.1107 24.8203C21.2985 22.7301 22.5355 20.5951 24.5932 18.8104C26.2137 17.4049 28.2443 16.2979 30.3002 15.6825C29.9091 17.4488 29.9052 19.209 29.9017 20.7967L29.9017 20.8014L29.9017 20.8038C29.8973 22.7859 29.8935 24.4968 29.1906 25.7166C27.9749 27.8252 25.0442 28.1619 22.2147 27.5528C24.4503 26.2517 26.3233 24.3322 27.5797 21.9474C27.7605 21.6042 27.6288 21.1793 27.2856 20.9985C26.9423 20.8176 26.5174 20.9493 26.3366 21.2925C24.9435 23.9363 22.7087 25.945 20.0594 27.0607ZM12.5451 22.5982C12.6768 22.7299 12.8559 22.8036 13.042 22.8036H13.0429H13.0534C13.243 22.801 13.4239 22.7211 13.5538 22.5833L23.6283 11.8838C23.8925 11.6037 23.8811 11.163 23.6037 10.8961L20.611 8.0176C20.4741 7.88679 20.2906 7.81656 20.1019 7.82183C19.9122 7.82798 19.734 7.90962 19.6059 8.0492L13.0051 15.2495L10.1389 12.5501C9.86146 12.2885 9.42603 12.2964 9.15828 12.5667L6.34294 15.4075C6.07168 15.6823 6.07255 16.1256 6.34557 16.3987L12.5451 22.5982ZM7.83401 15.9005L13.0262 21.0935L22.128 11.4273L20.1545 9.5293L13.5591 16.7243C13.4318 16.8631 13.2553 16.9447 13.0675 16.9517C12.8813 16.9587 12.697 16.8903 12.56 16.7612L9.67447 14.0433L7.83401 15.9005Z" fill="#005C97"/>
</svg>
