<svg width="36" height="36" viewBox="0 0 36 36" fill="none" xmlns="http://www.w3.org/2000/svg">
<path fill-rule="evenodd" clip-rule="evenodd" d="M0.17457 17.9267C0.325297 18.1089 0.543757 18.2033 0.76317 18.2033H0.764124C0.934885 18.2033 1.10755 18.1461 1.2497 18.0288L3.05255 16.5394V29.6539C3.05255 30.0756 3.39407 30.4171 3.81573 30.4171H14.5002V30.4181C16.993 30.4181 19.1805 29.767 21.0449 28.4751C21.9416 28.1568 22.8364 27.9786 23.7246 27.9405C24.208 31.0027 25.8534 32.4402 27.1968 33.1119C28.1527 33.5898 29.2584 33.8235 30.4174 33.8235H30.4184C32.146 33.8235 33.9929 33.3036 35.6366 32.2934C35.8989 32.1321 36.0392 31.8278 35.9905 31.5235C35.5851 28.965 33.5922 25.7539 30.1751 24.7475C29.7716 24.6282 29.3471 24.8591 29.2278 25.2636C29.1086 25.6671 29.3394 26.0916 29.7439 26.2108C32.4437 27.0065 33.9214 29.4944 34.3764 31.2564C32.1975 32.4222 29.6438 32.6273 27.8789 31.7458C26.5305 31.072 25.6456 29.7932 25.29 28.0196C25.9059 28.1088 26.5172 28.2669 27.1224 28.4937C28.6357 29.0615 29.5513 29.8715 29.5765 29.8937L29.5769 29.8942C29.7236 30.0285 29.9073 30.0943 30.0911 30.0945C30.2978 30.0942 30.5035 30.0103 30.654 29.8465C30.9392 29.5355 30.9173 29.0528 30.6063 28.7685C30.4626 28.6374 27.6057 26.0839 23.284 26.437C23.8058 25.8283 24.2915 25.1503 24.7407 24.4033C29.5803 23.3956 32.5362 21.3658 33.5274 18.3672C34.2667 16.132 33.8813 13.4428 32.3816 10.3748C30.9564 7.45853 28.8624 4.879 27.3571 3.22958C27.1319 2.9825 26.7723 2.91095 26.4689 3.0531C26.1656 3.19524 25.991 3.51863 26.0377 3.84966C26.3048 5.74997 24.6697 8.65672 21.1772 12.4888C16.7441 17.3522 18.4384 20.216 19.4506 21.9265C19.4781 21.9722 19.5048 22.0175 19.5311 22.0623L19.5312 22.0623L19.5312 22.0623L19.5312 22.0624L19.5641 22.1182C19.7778 22.4817 20.2452 22.6038 20.6087 22.391C20.9721 22.1774 21.0942 21.7099 20.8815 21.3464L20.8479 21.2891C20.8208 21.2429 20.7934 21.1962 20.7651 21.149C19.815 19.5444 18.633 17.5468 22.3058 13.5172C25.1944 10.3472 26.8829 7.74186 27.4105 5.62309C29.7239 8.43731 33.43 13.7986 32.0783 17.8873C31.353 20.0816 29.2064 21.6669 25.6879 22.6105C27.0678 19.6375 27.7229 16.4162 28.1096 14.1004C28.1792 13.6845 27.8987 13.2914 27.4828 13.2218C27.0669 13.1522 26.6738 13.4326 26.6042 13.8485C26.1715 16.4383 25.3932 20.2034 23.6015 23.3283C23.5962 23.3371 23.5911 23.346 23.5862 23.355C23.5381 23.4384 23.4894 23.5214 23.4399 23.6039C22.5453 25.094 21.4851 26.2822 20.2839 27.1405C20.2445 27.1632 20.2077 27.1892 20.1737 27.2179C20.0929 27.274 20.0114 27.3285 19.9293 27.3816C18.38 28.3832 16.5531 28.8908 14.5002 28.8908H4.5789V15.2785L8.11829 12.3545C8.29286 12.2095 8.39494 11.9939 8.39494 11.7659V5.99252H10.6845V8.61403C10.6845 8.90976 10.8552 9.17878 11.1223 9.3047C11.3895 9.43063 11.7052 9.39056 11.9332 9.20263L18.2981 3.94434L22.1903 7.39485C22.5051 7.67437 22.9878 7.64575 23.2673 7.32998C23.5469 7.01517 23.5182 6.53246 23.2025 6.25295L18.8218 2.36838C18.5404 2.11939 18.1197 2.11176 17.8297 2.35121L12.2108 6.99323V5.22934C12.2108 4.80768 11.8693 4.46616 11.4476 4.46616H7.63176C7.2101 4.46616 6.86858 4.80768 6.86858 5.22934V11.4073L0.276645 16.8525C-0.0477052 17.1206 -0.0934958 17.6014 0.17457 17.9267ZM8.39483 24.3058H14.5002C14.9219 24.3058 15.2634 23.9643 15.2634 23.5427V17.4372C15.2634 17.0156 14.9219 16.6741 14.5002 16.6741H8.39483C7.97317 16.6741 7.63165 17.0156 7.63165 17.4372V23.5427C7.63165 23.9643 7.97317 24.3058 8.39483 24.3058ZM13.7371 22.7795H9.15801V18.2004H13.7371V22.7795Z" fill="#002A4E"/>
</svg>
