<svg width="36" height="36" viewBox="0 0 36 36" fill="none" xmlns="http://www.w3.org/2000/svg">
<mask id="path-1-inside-1_964_21167" fill="white">
<path fill-rule="evenodd" clip-rule="evenodd" d="M9.7432 21.4679C14.367 25.1009 18.0001 29.7248 18.0001 29.7248C18.0001 29.7248 17.3395 22.1284 14.6973 14.5321C12.3854 6.27523 7.10099 0 7.10099 0C7.10099 0 6.77073 3.63303 5.77991 8.58715C5.11936 13.211 3.1377 16.844 3.1377 16.844C3.1377 16.844 5.11935 17.8349 9.7432 21.4679ZM19.9825 24.1101C20.6431 30.055 19.9825 36 19.9825 36C19.9825 36 24.9367 30.3853 28.9 22.4587C32.533 15.1927 32.8633 9.24772 32.8633 9.24772C32.8633 9.24772 29.8908 11.2294 25.5972 13.211C21.9642 15.1927 18.6614 16.1835 18.6614 16.1835C18.6614 16.1835 19.322 18.1651 19.9825 24.1101Z"/>
</mask>
<path d="M18.0001 29.7248L16.4274 30.9604L20.574 36.2378L19.9926 29.5515L18.0001 29.7248ZM9.7432 21.4679L8.50755 23.0405L9.7432 21.4679ZM14.6973 14.5321L12.7714 15.0714L12.788 15.1308L12.8083 15.1892L14.6973 14.5321ZM7.10099 0L8.63081 -1.28827L5.54315 -4.95486L5.1092 -0.18106L7.10099 0ZM5.77991 8.58715L3.81874 8.19492L3.80786 8.24936L3.80001 8.30431L5.77991 8.58715ZM3.1377 16.844L1.38191 15.8863L0.389381 17.7059L2.24327 18.6329L3.1377 16.844ZM19.9825 36L17.9947 35.7791L17.296 42.0675L21.4822 37.3232L19.9825 36ZM19.9825 24.1101L21.9703 23.8892L19.9825 24.1101ZM28.9 22.4587L30.6888 23.3531V23.3531L28.9 22.4587ZM32.8633 9.24772L34.8602 9.35865L35.0821 5.36482L31.7539 7.58362L32.8633 9.24772ZM25.5972 13.211L24.7591 11.3951L24.6983 11.4232L24.6395 11.4552L25.5972 13.211ZM18.6614 16.1835L18.0867 14.2678L16.1122 14.8602L16.7641 16.8159L18.6614 16.1835ZM18.0001 29.7248C19.5727 28.4891 19.5726 28.4889 19.5724 28.4887C19.5723 28.4886 19.5721 28.4884 19.572 28.4882C19.5717 28.4878 19.5713 28.4873 19.5709 28.4868C19.5701 28.4858 19.569 28.4844 19.5678 28.4828C19.5652 28.4796 19.5618 28.4753 19.5575 28.4698C19.5489 28.459 19.5368 28.4438 19.5213 28.4243C19.4903 28.3855 19.4456 28.3298 19.3879 28.2586C19.2724 28.1164 19.1047 27.9123 18.89 27.6572C18.4608 27.1476 17.842 26.4329 17.0752 25.6021C15.5482 23.9479 13.4042 21.8009 10.9788 19.8952L8.50755 23.0405C10.706 24.7679 12.6905 26.7493 14.136 28.3153C14.8554 29.0947 15.4339 29.763 15.8303 30.2338C16.0284 30.469 16.1807 30.6545 16.282 30.7793C16.3327 30.8417 16.3705 30.8889 16.395 30.9196C16.4072 30.9349 16.4161 30.9461 16.4215 30.9529C16.4242 30.9564 16.4261 30.9587 16.4271 30.96C16.4276 30.9606 16.4279 30.9609 16.4279 30.961C16.428 30.9611 16.4279 30.961 16.4278 30.9609C16.4278 30.9609 16.4277 30.9607 16.4277 30.9607C16.4276 30.9606 16.4274 30.9604 18.0001 29.7248ZM12.8083 15.1892C14.0821 18.8513 14.885 22.5359 15.3691 25.3197C15.6105 26.7076 15.771 27.8621 15.8708 28.6657C15.9207 29.0673 15.9554 29.3807 15.9773 29.5911C15.9883 29.6963 15.9961 29.7757 16.001 29.8275C16.0035 29.8534 16.0053 29.8723 16.0063 29.8842C16.0069 29.8901 16.0073 29.8942 16.0075 29.8965C16.0076 29.8977 16.0076 29.8984 16.0076 29.8987C16.0077 29.8988 16.0077 29.8988 16.0077 29.8987C16.0076 29.8986 16.0076 29.8985 16.0076 29.8984C16.0076 29.8982 16.0076 29.898 18.0001 29.7248C19.9926 29.5515 19.9925 29.5512 19.9925 29.5509C19.9925 29.5508 19.9925 29.5504 19.9924 29.5501C19.9924 29.5496 19.9923 29.5489 19.9923 29.5481C19.9921 29.5465 19.9919 29.5444 19.9917 29.5419C19.9913 29.5369 19.9906 29.53 19.9899 29.5213C19.9883 29.5039 19.986 29.4793 19.983 29.4477C19.9769 29.3845 19.968 29.2933 19.9557 29.176C19.9312 28.9413 19.8936 28.6018 19.8403 28.1726C19.7337 27.3145 19.564 26.0951 19.3099 24.6344C18.8033 21.721 17.9547 17.8093 16.5863 13.8751L12.8083 15.1892ZM7.10099 0C5.57116 1.28827 5.57091 1.28797 5.57068 1.2877C5.57063 1.28764 5.57042 1.28738 5.57032 1.28726C5.57011 1.28702 5.56999 1.28687 5.56994 1.28682C5.56985 1.28671 5.57008 1.28698 5.57062 1.28763C5.5717 1.28892 5.57403 1.29171 5.57757 1.29598C5.58467 1.30452 5.59663 1.31899 5.61322 1.33925C5.64639 1.37978 5.69802 1.44345 5.76611 1.52924C5.90235 1.70086 6.10424 1.96064 6.35589 2.30025C6.85964 2.98006 7.56023 3.9763 8.33165 5.22244C9.88128 7.72568 11.6826 11.1827 12.7714 15.0714L16.6233 13.9928C15.4001 9.62462 13.4033 5.81561 11.7327 3.11702C10.894 1.76223 10.129 0.673608 9.56971 -0.0812137C9.28982 -0.45892 9.06081 -0.753895 8.89902 -0.957708C8.8181 -1.05964 8.75395 -1.13884 8.70858 -1.19427C8.68589 -1.22199 8.6679 -1.24376 8.65486 -1.25947C8.64833 -1.26733 8.64305 -1.27367 8.63903 -1.27847C8.63702 -1.28087 8.63533 -1.28289 8.63396 -1.28453C8.63327 -1.28534 8.63267 -1.28606 8.63214 -1.28669C8.63188 -1.287 8.63154 -1.2874 8.63141 -1.28755C8.6311 -1.28792 8.63081 -1.28827 7.10099 0ZM7.74107 8.97939C8.24628 6.4533 8.58312 4.26412 8.79399 2.70361C8.89949 1.92288 8.97364 1.29821 9.02167 0.865923C9.04569 0.649746 9.06319 0.481576 9.07482 0.365946C9.08064 0.308127 9.08498 0.263435 9.08795 0.232435C9.08943 0.216934 9.09057 0.204856 9.09137 0.19627C9.09177 0.191977 9.09209 0.188557 9.09232 0.18602C9.09244 0.184751 9.09253 0.183702 9.09261 0.182875C9.09265 0.182462 9.09268 0.182104 9.09271 0.181801C9.09272 0.18165 9.09274 0.181465 9.09274 0.181389C9.09276 0.181218 9.09277 0.18106 7.10099 0C5.1092 -0.18106 5.10921 -0.18119 5.10922 -0.181306C5.10922 -0.181326 5.10923 -0.181428 5.10924 -0.181469C5.10924 -0.18155 5.10925 -0.181576 5.10924 -0.181547C5.10924 -0.181489 5.10921 -0.181212 5.10917 -0.180715C5.10908 -0.179723 5.1089 -0.177856 5.10865 -0.175124C5.10814 -0.169659 5.1073 -0.160733 5.10612 -0.148414C5.10377 -0.123778 5.10005 -0.0855787 5.0949 -0.0343805C5.0846 0.0680226 5.06856 0.222387 5.04613 0.424215C5.00128 0.827939 4.93094 1.42116 4.83002 2.16795C4.62806 3.66249 4.30435 5.76688 3.81874 8.19492L7.74107 8.97939ZM3.1377 16.844C4.89348 17.8017 4.89368 17.8014 4.89388 17.801C4.89395 17.8009 4.89416 17.8005 4.89431 17.8002C4.89462 17.7997 4.89496 17.799 4.89533 17.7984C4.89606 17.797 4.89692 17.7954 4.89789 17.7936C4.89984 17.79 4.90226 17.7855 4.90515 17.7802C4.91093 17.7694 4.91856 17.7551 4.92794 17.7374C4.94669 17.702 4.97246 17.6527 5.00443 17.5902C5.06834 17.4654 5.15713 17.2877 5.2642 17.0622C5.47813 16.6119 5.76626 15.9686 6.0751 15.1744C6.68985 13.5937 7.40169 11.3768 7.75981 8.87L3.80001 8.30431C3.49757 10.4214 2.8883 12.3329 2.34709 13.7246C2.07794 14.4167 1.82937 14.9707 1.6511 15.346C1.56207 15.5334 1.49088 15.6757 1.44384 15.7675C1.42033 15.8135 1.40288 15.8468 1.39229 15.8668C1.38699 15.8768 1.38341 15.8835 1.38165 15.8868C1.38077 15.8884 1.38034 15.8892 1.38038 15.8891C1.3804 15.8891 1.38053 15.8888 1.38079 15.8884C1.38091 15.8881 1.38107 15.8879 1.38126 15.8875C1.38135 15.8873 1.38151 15.887 1.38156 15.887C1.38173 15.8866 1.38191 15.8863 3.1377 16.844ZM10.9788 19.8952C8.62779 18.048 6.92928 16.8574 5.801 16.1196C5.23665 15.7506 4.81408 15.4944 4.52301 15.3256C4.37744 15.2411 4.26463 15.1785 4.18328 15.1345C4.14261 15.1125 4.10978 15.0951 4.08465 15.0821C4.07208 15.0755 4.06143 15.07 4.05268 15.0656C4.04831 15.0633 4.04441 15.0614 4.04099 15.0596C4.03927 15.0588 4.03768 15.058 4.0362 15.0572C4.03546 15.0569 4.03475 15.0565 4.03407 15.0562C4.03373 15.056 4.03325 15.0557 4.03308 15.0557C4.03259 15.0554 4.03212 15.0552 3.1377 16.844C2.24327 18.6329 2.24281 18.6327 2.24236 18.6324C2.24222 18.6324 2.24178 18.6321 2.2415 18.632C2.24094 18.6317 2.24041 18.6315 2.23992 18.6312C2.23892 18.6307 2.23806 18.6303 2.23731 18.6299C2.23583 18.6291 2.23484 18.6286 2.23436 18.6284C2.23339 18.6279 2.23444 18.6284 2.23751 18.63C2.24366 18.6332 2.25793 18.6407 2.28047 18.6529C2.32556 18.6773 2.40368 18.7205 2.51614 18.7857C2.74113 18.9162 3.10296 19.1347 3.612 19.4675C4.63051 20.1335 6.23476 21.2547 8.50755 23.0405L10.9788 19.8952ZM19.9825 36C21.9703 36.2209 21.9703 36.2206 21.9703 36.2204C21.9703 36.2203 21.9704 36.22 21.9704 36.2197C21.9705 36.2193 21.9705 36.2187 21.9706 36.2181C21.9707 36.2168 21.9709 36.2151 21.9711 36.2131C21.9716 36.2091 21.9722 36.2036 21.9729 36.1967C21.9744 36.1829 21.9765 36.1635 21.9791 36.1386C21.9842 36.0887 21.9915 36.0169 22.0004 35.9246C22.0182 35.7401 22.0424 35.4735 22.0691 35.1364C22.1226 34.4627 22.1864 33.5054 22.2288 32.3584C22.3135 30.0735 22.3153 26.9946 21.9703 23.8892L17.9947 24.331C18.3103 27.1706 18.3121 30.0366 18.2316 32.2104C18.1915 33.2927 18.1314 34.1932 18.0817 34.82C18.0568 35.1332 18.0346 35.3774 18.0188 35.5412C18.0109 35.6231 18.0047 35.6849 18.0005 35.725C17.9984 35.7451 17.9968 35.7598 17.9959 35.7688C17.9954 35.7734 17.995 35.7765 17.9948 35.7782C17.9947 35.7791 17.9947 35.7796 17.9947 35.7798C17.9947 35.7798 17.9947 35.7798 17.9947 35.7797C17.9947 35.7797 17.9947 35.7795 17.9947 35.7795C17.9947 35.7793 17.9947 35.7791 19.9825 36ZM27.1111 21.5643C25.1911 25.4043 23.025 28.6952 21.3351 31.0288C20.4917 32.1935 19.7707 33.1145 19.264 33.7405C19.0108 34.0533 18.8113 34.2921 18.6772 34.4503C18.6102 34.5295 18.5595 34.5884 18.5266 34.6264C18.5102 34.6454 18.4982 34.6592 18.4908 34.6676C18.4872 34.6718 18.4846 34.6747 18.4833 34.6762C18.4826 34.677 18.4822 34.6774 18.4822 34.6775C18.4821 34.6776 18.4822 34.6775 18.4823 34.6774C18.4823 34.6773 18.4825 34.6772 18.4825 34.6771C18.4827 34.677 18.4828 34.6768 19.9825 36C21.4822 37.3232 21.4824 37.323 21.4826 37.3227C21.4827 37.3226 21.483 37.3223 21.4832 37.3221C21.4836 37.3216 21.4841 37.3211 21.4847 37.3204C21.4858 37.3192 21.4872 37.3175 21.4889 37.3156C21.4924 37.3116 21.497 37.3063 21.5029 37.2997C21.5145 37.2864 21.5308 37.2676 21.5516 37.2436C21.5932 37.1955 21.6528 37.1261 21.729 37.0362C21.8813 36.8564 22.0999 36.5946 22.373 36.2573C22.9191 35.5827 23.6844 34.6046 24.5749 33.3749C26.353 30.9194 28.6455 27.4398 30.6888 23.3531L27.1111 21.5643ZM32.8633 9.24772C30.8664 9.13678 30.8664 9.13627 30.8664 9.13579C30.8664 9.13566 30.8664 9.1352 30.8665 9.13494C30.8665 9.13441 30.8665 9.13398 30.8665 9.13363C30.8666 9.13294 30.8666 9.1326 30.8666 9.13262C30.8666 9.13266 30.8665 9.13411 30.8663 9.13696C30.8659 9.14267 30.8652 9.15398 30.864 9.17074C30.8615 9.20426 30.8572 9.2596 30.8503 9.33563C30.8364 9.48772 30.8121 9.72242 30.7718 10.0308C30.6911 10.6479 30.5463 11.5583 30.2924 12.691C29.7841 14.9588 28.8419 18.1028 27.1111 21.5643L30.6888 23.3531C32.5911 19.5486 33.6305 16.0871 34.1956 13.5659C34.4784 12.3041 34.6433 11.2742 34.738 10.5495C34.7854 10.187 34.8153 9.90049 34.8337 9.69908C34.8429 9.59836 34.8492 9.51888 34.8534 9.46177C34.8555 9.43322 34.857 9.41025 34.8581 9.39302C34.8587 9.3844 34.8591 9.37722 34.8594 9.37149C34.8596 9.36862 34.8598 9.36611 34.8599 9.36398C34.86 9.36291 34.86 9.36193 34.8601 9.36104C34.8601 9.3606 34.8601 9.36 34.8601 9.35978C34.8602 9.3592 34.8602 9.35865 32.8633 9.24772ZM26.4353 15.0269C28.6508 14.0044 30.5236 12.9829 31.8446 12.2158C32.5059 11.8318 33.031 11.5104 33.394 11.2829C33.5755 11.1691 33.7167 11.0787 33.8142 11.0156C33.8629 10.984 33.9008 10.9592 33.9273 10.9418C33.9406 10.9331 33.951 10.9262 33.9586 10.9211C33.9624 10.9186 33.9655 10.9166 33.9678 10.915C33.969 10.9143 33.97 10.9136 33.9708 10.9131C33.9712 10.9128 33.9716 10.9126 33.9719 10.9124C33.972 10.9122 33.9722 10.9121 33.9723 10.9121C33.9725 10.9119 33.9727 10.9118 32.8633 9.24772C31.7539 7.58362 31.754 7.58351 31.7542 7.58342C31.7542 7.58339 31.7543 7.58331 31.7544 7.58326C31.7545 7.58317 31.7546 7.58312 31.7547 7.58309C31.7547 7.58303 31.7547 7.58309 31.7544 7.58327C31.7538 7.58364 31.7526 7.58447 31.7506 7.58577C31.7467 7.58838 31.7399 7.59285 31.7304 7.59912C31.7113 7.61167 31.6811 7.63143 31.6402 7.65792C31.5583 7.71091 31.4337 7.79079 31.2695 7.89374C30.9409 8.09969 30.4546 8.39753 29.8361 8.75667C28.5975 9.47585 26.8372 10.436 24.7591 11.3951L26.4353 15.0269ZM18.6614 16.1835C19.2361 18.0991 19.2364 18.0991 19.2366 18.099C19.2367 18.099 19.237 18.0989 19.2372 18.0988C19.2376 18.0987 19.2381 18.0986 19.2386 18.0984C19.2396 18.0981 19.2408 18.0977 19.2423 18.0973C19.2451 18.0964 19.2488 18.0953 19.2532 18.094C19.2621 18.0913 19.2742 18.0876 19.2893 18.0829C19.3196 18.0736 19.3622 18.0603 19.4163 18.0431C19.5246 18.0086 19.6794 17.9584 19.8747 17.8924C20.2651 17.7604 20.8189 17.5649 21.4889 17.3055C22.8253 16.7882 24.6424 16.01 26.5549 14.9668L24.6395 11.4552C22.9191 12.3937 21.2683 13.1017 20.045 13.5752C19.4351 13.8113 18.9362 13.9873 18.5938 14.103C18.4227 14.1609 18.2911 14.2035 18.2046 14.231C18.1613 14.2448 18.1294 14.2547 18.1095 14.2609C18.0996 14.2639 18.0926 14.266 18.0888 14.2672C18.0869 14.2678 18.0858 14.2681 18.0854 14.2682C18.0852 14.2683 18.0853 14.2683 18.0855 14.2682C18.0856 14.2682 18.0857 14.2681 18.086 14.2681C18.0861 14.268 18.0863 14.268 18.0863 14.268C18.0865 14.2679 18.0867 14.2678 18.6614 16.1835ZM21.9703 23.8892C21.6347 20.8694 21.2963 18.8296 21.0354 17.5252C20.9049 16.8726 20.7935 16.4024 20.711 16.0841C20.6697 15.9249 20.6356 15.8034 20.6098 15.7159C20.597 15.6722 20.5862 15.6369 20.5776 15.6096C20.5734 15.5959 20.5696 15.5842 20.5665 15.5745C20.5649 15.5697 20.5635 15.5653 20.5622 15.5614C20.5616 15.5594 20.561 15.5576 20.5604 15.5559C20.5601 15.555 20.5598 15.5542 20.5596 15.5534C20.5594 15.553 20.5592 15.5524 20.5592 15.5522C20.559 15.5516 20.5588 15.5511 18.6614 16.1835C16.7641 16.8159 16.7639 16.8154 16.7637 16.8148C16.7636 16.8147 16.7635 16.8141 16.7634 16.8138C16.7631 16.8131 16.7629 16.8125 16.7627 16.8119C16.7623 16.8106 16.7619 16.8095 16.7616 16.8085C16.761 16.8066 16.7605 16.8051 16.7602 16.8042C16.7596 16.8023 16.7597 16.8025 16.7604 16.8048C16.7618 16.8095 16.7659 16.8225 16.7724 16.8446C16.7853 16.8887 16.808 16.9685 16.839 17.0879C16.9009 17.327 16.9959 17.7237 17.1131 18.3097C17.3476 19.4823 17.6697 21.4059 17.9947 24.331L21.9703 23.8892Z" fill="#002A4E" mask="url(#path-1-inside-1_964_21167)"/>
</svg>
