<svg width="36" height="36" viewBox="0 0 36 36" fill="none" xmlns="http://www.w3.org/2000/svg">
<g clip-path="url(#clip0_964_19946)">
<path fill-rule="evenodd" clip-rule="evenodd" d="M16.2266 10.8135H15.1607L15.1213 10.8105L13.3002 10.6036L13.2454 10.593L11.1149 9.99673C11.0249 9.97087 10.9475 9.91155 10.8969 9.82941L10.063 8.48174C9.93222 8.27031 10.0124 7.98284 10.2275 7.88241L12.4592 6.85721L13.5196 6.49062C13.5899 6.46628 13.6658 6.46476 13.7375 6.48606L14.3534 6.67772L14.2142 5.71333C14.1973 5.59012 14.2325 5.46691 14.3084 5.37565L16.0283 3.35108C16.0986 3.2659 16.1984 3.21875 16.3039 3.21875H17.9759C18.2178 3.21875 18.395 3.4606 18.3429 3.71461L17.8521 6.05252L18.1559 6.86325C18.1882 6.94996 18.1925 7.04578 18.1671 7.13401L17.8296 8.33717L17.6314 10.3252L18.6565 10.1351C18.7747 10.1123 18.8956 10.1534 18.9814 10.2446L19.7914 11.101L21.8726 11.606C22.0006 11.6364 22.1046 11.7383 22.1468 11.8737L22.459 12.8837H24.619C24.8271 12.8837 24.9945 13.0648 24.9945 13.2884V14.7075C24.9945 14.887 24.8876 15.0422 24.7343 15.0939L25.0845 15.2156C25.2068 15.2582 25.3011 15.3646 25.3334 15.4985L25.7834 17.3466C25.8453 17.6037 25.6667 17.8547 25.4206 17.8547H23.4364C23.3661 17.8547 23.2972 17.8334 23.2367 17.7938L22.175 17.0743L21.2778 17.5885C21.0837 17.701 20.8433 17.6082 20.7575 17.3907L20.3581 16.3853C20.2512 16.1176 20.4326 15.8195 20.7026 15.8195H21.289L21.3987 15.0452L20.8671 14.1828L19.4876 13.7675L19.2879 14.1706L19.6578 15.4833C19.6887 15.5944 19.6746 15.713 19.6212 15.8104L19.0896 16.7671L20.8531 17.5991C21.1709 17.7497 21.1456 18.2487 20.8123 18.3582L18.8295 19.0153C18.7324 19.0472 18.6284 19.0366 18.5398 18.9833L17.7326 18.5087L17.1335 19.5339L16.2912 21.4566L16.4079 22.1092H16.6006C16.7356 22.1092 16.8607 22.1882 16.9268 22.3145L17.3838 23.1906H18.2416C18.2965 23.1906 18.3499 23.2028 18.3977 23.2272L20.3074 24.1733H21.2918C21.4451 24.1733 21.5843 24.2752 21.6406 24.4303L22.3043 26.2404L22.9751 26.5188L22.2073 24.7574C22.1511 24.6342 22.1567 24.4881 22.2228 24.371L22.715 23.4842V22.351L21.8192 21.7486C21.6828 21.6559 21.6153 21.4809 21.6518 21.3106L21.7854 20.6915L21.3045 19.9568C21.2595 19.8884 21.2356 19.8062 21.2356 19.7226V18.6274C21.2356 18.4418 21.3509 18.2806 21.5168 18.235L22.7122 17.9049C22.7628 17.8897 22.8162 17.8881 22.8668 17.8973L24.6823 18.2274C24.8286 18.2547 24.9467 18.3719 24.9833 18.527L25.249 19.6541L25.7525 19.5674V18.2973C25.7525 17.9688 26.0942 17.7771 26.3431 17.9642L28.7422 19.7834L29.7392 20.5683L30.5534 20.2276C30.7432 20.147 30.9584 20.2474 31.0357 20.4527L31.099 20.6215H31.7459C31.8612 20.6215 31.9709 20.6793 32.0426 20.7782L32.8259 21.8764L33.2731 22.853L33.9354 22.5457C34.0521 22.491 34.1871 22.5046 34.2926 22.5822L35.5681 23.5131C35.6328 23.5603 35.682 23.6287 35.7101 23.7078L35.9632 24.4364C36.0406 24.6615 35.9225 24.9079 35.7101 24.9703L34.6118 25.2913L33.2548 26.0001C33.02 26.1233 32.7443 25.9545 32.719 25.6731L32.5024 23.2363L32.2943 23.1739L31.7262 24.4988C31.6911 24.5824 31.6292 24.6494 31.5532 24.6904L29.8081 25.632C29.8095 25.632 30.0401 25.7248 30.5 25.9104C30.6139 25.956 30.6996 26.0579 30.7306 26.1841L30.9753 27.1531H31.5631L32.2339 26.2237C32.366 26.0412 32.6136 26.0153 32.7753 26.1674L33.3378 26.6937C33.4446 26.7957 33.491 26.9523 33.4559 27.1014L33.214 28.1175C33.2028 28.1631 33.1859 28.2057 33.162 28.2437L32.4293 29.415L32.1031 30.5391C32.0285 30.7931 31.7515 30.9026 31.5434 30.7596L30.7995 30.2455C30.6842 30.1649 30.6181 30.0249 30.6265 29.8774L30.6448 29.5488L30.3509 29.8226C30.1737 29.9884 29.8995 29.9382 29.7813 29.7192L29.2118 28.6514H28.8237L28.4539 30.5026C28.4272 30.6349 28.3414 30.7429 28.2261 30.7931L26.8916 31.3711L26.218 32.5789C26.1744 32.6549 26.1097 32.7142 26.0323 32.7462L25.3461 33.0352V33.3759C25.3461 33.5067 25.287 33.6315 25.1872 33.7075L23.307 35.1434C23.0356 35.3503 22.6672 35.1024 22.7206 34.748L22.8739 33.7197L22.4886 32.2747L19.5411 30.5482L18.0913 30.8175C18.0308 30.8281 17.9689 30.8236 17.9099 30.8023L16.5556 30.314L14.3056 30.5285L8.88584 30.0858L3.78104 29.018H2.43806C2.29744 29.018 2.16806 28.9313 2.10337 28.7944L1.10635 26.6573C1.04307 26.5219 1.05573 26.3592 1.13729 26.236L1.75746 25.3081L1.48043 24.7803C1.44809 24.7194 1.43121 24.6495 1.43121 24.5795V22.9185C1.43121 22.8211 1.46356 22.7268 1.52262 22.6538L1.96701 22.0956L1.67591 21.6316C1.63794 21.5708 1.61685 21.5008 1.61263 21.4293L1.46497 18.9013L1.25966 18.9986C1.05013 19.099 0.806855 18.9728 0.747779 18.7324C0.595902 18.121 0.514341 17.7452 0.493248 17.5399C0.425748 17.4714 0.325906 17.3923 0.183871 17.3011C-0.00737853 17.1764 -0.0551901 16.8995 0.0798099 16.7064L4.16509 10.9444C4.31415 10.736 4.60526 10.733 4.75711 10.9399L5.55588 12.029L7.28417 11.7704C7.40651 11.7521 7.52885 11.7993 7.61182 11.8966L8.2798 12.683L9.53138 13.3219L9.64107 13.1576V12.7986L8.54278 12.5704C8.36559 12.5339 8.23762 12.3666 8.23762 12.1719V11.0996C8.23762 11.0159 8.26293 10.9322 8.30793 10.8638L9.17136 9.55261C9.27683 9.39138 9.4737 9.33662 9.63824 9.42028L10.7759 10.0044C10.8322 10.0333 10.8814 10.0774 10.9179 10.1321L11.5648 11.0904L13.13 11.2958C13.2945 11.3171 13.4267 11.454 13.4548 11.6304L13.8359 14.0611C13.8444 14.1204 13.8416 14.1798 13.8261 14.2376L13.5786 15.1958H14.0581L13.9091 14.5798C13.8767 14.4429 13.9119 14.2969 14.0033 14.195L14.5391 13.5987L14.9848 12.5416C15.0959 12.2769 15.4236 12.2206 15.6036 12.4381L17.0816 14.2057L17.4627 14.8506L17.6061 14.2665L17.1167 13.798L16.5078 12.9584C16.4657 12.8991 16.4389 12.8291 16.4319 12.7561L16.228 10.8334C16.228 10.8258 16.2266 10.8197 16.2266 10.8136L16.2266 10.8135ZM24.5952 33.1658V32.7582C24.5952 32.5893 24.6908 32.4403 24.8356 32.3794L25.6414 32.0402L26.315 30.8355C26.3572 30.7594 26.4205 30.7016 26.4964 30.6682L27.762 30.1206L28.1558 28.1599C28.1924 27.9728 28.3456 27.8405 28.5214 27.8405H29.4284C29.5634 27.8405 29.6872 27.918 29.7533 28.0428L30.2047 28.8885L30.8305 28.3044C31.0822 28.0702 31.4703 28.2785 31.4492 28.6375L31.3888 29.6901L31.5336 29.7905L31.7291 29.1166C31.7403 29.0786 31.7558 29.0421 31.7769 29.0102L32.5039 27.8465L32.6712 27.1438L32.5827 27.0601L32.0413 27.8085C31.9695 27.9059 31.8613 27.9637 31.7459 27.9637H30.6884C30.5197 27.9637 30.3706 27.842 30.327 27.6655L30.0584 26.5977L29.7505 26.4745L28.7535 27.3202C28.4581 27.5697 28.0447 27.2503 28.1685 26.8669L28.6086 25.501C28.641 25.4006 28.7085 25.3185 28.7957 25.2713L31.1019 24.0286L31.7474 22.5212C31.8233 22.3432 32.0047 22.2504 32.1805 22.2991L31.5617 21.4321H30.8473C30.6955 21.4321 30.5576 21.3317 30.5 21.1796L29.8194 21.4047C29.7013 21.4549 29.5663 21.4351 29.4636 21.3545L28.3063 20.4434L26.5021 19.0759V19.914C26.5021 20.1148 26.3685 20.2837 26.1856 20.3156L25.0297 20.5118C24.8385 20.5453 24.6556 20.4145 24.6078 20.2121L24.3167 18.9831L22.8205 18.7108L21.9852 18.9421V19.5931L22.4957 20.3704C22.5576 20.4647 22.5801 20.5848 22.5548 20.6974L22.4437 21.213L23.2888 21.7804C23.3985 21.8549 23.466 21.9842 23.466 22.1242V23.5966C23.466 23.6696 23.4477 23.7426 23.4126 23.805L22.971 24.599L23.7726 26.3771C23.8387 26.5201 23.819 26.692 23.7234 26.8152L23.3788 27.2609C23.2748 27.3947 23.106 27.4419 22.9555 27.3795L21.8826 26.9323C21.7855 26.8928 21.7068 26.8091 21.6688 26.7042L21.0374 24.9853H20.2246C20.1712 24.9853 20.1177 24.9716 20.0685 24.9473L18.1602 24.0012H17.1646C17.0282 24.0012 16.9044 23.9236 16.8369 23.7958L16.3813 22.9197H16.0987C15.9187 22.9197 15.7654 22.7813 15.7302 22.5911L15.532 21.4807C15.5165 21.3955 15.5263 21.3073 15.5615 21.2297L16.4657 19.1656L17.2855 17.754C17.391 17.573 17.609 17.5122 17.7819 17.6141L18.7607 18.1891L19.6241 17.9031L18.3979 17.3251C18.1912 17.2277 18.1096 16.9539 18.2263 16.744L18.8915 15.5469L18.5259 14.2464C18.4964 14.143 18.5062 14.0319 18.554 13.9376L18.9688 13.098C19.0518 12.9292 19.2304 12.847 19.4006 12.8972L21.202 13.4403C21.2892 13.4661 21.3637 13.5254 21.4143 13.606L22.1034 14.7271C22.1554 14.8107 22.1765 14.9127 22.161 15.0131L21.9839 16.2649C22.1329 16.1797 22.2749 16.1843 22.3889 16.2619L23.5434 17.0437H24.9342L24.6599 15.9196L22.9767 15.3385C22.5984 15.2077 22.6434 14.613 23.0357 14.5506L24.2451 14.3575V13.6943H22.1906C22.0289 13.6943 21.8854 13.5832 21.8348 13.4174L21.5029 12.3481L19.5229 11.8674C19.4554 11.8507 19.3921 11.8142 19.3429 11.7625L18.5948 10.9685L17.429 11.186L17.0212 11.1921L17.1646 12.5504L17.64 13.2151L18.277 13.8251C18.3824 13.9254 18.4274 14.0836 18.3909 14.2327L17.9648 15.9622C17.8818 16.3044 17.46 16.3729 17.2856 16.0732L16.5037 14.7225L15.4307 13.4402L15.1959 14C15.1776 14.0426 15.1523 14.0806 15.1227 14.114L14.6896 14.5962L14.9076 15.4998C14.9695 15.7568 14.7895 16.0078 14.5448 16.0078H13.0851C12.8362 16.0078 12.6576 15.7507 12.7237 15.4922L13.0823 14.1064L12.7617 12.0636L11.3132 11.875C11.2092 11.8613 11.1164 11.802 11.0545 11.7107L10.3683 10.6931L9.60045 10.2992L8.98874 11.2285V11.8354L10.0856 12.0636C10.2628 12.1016 10.3908 12.2674 10.3908 12.4621V13.2881C10.3908 13.3733 10.3655 13.4569 10.3191 13.5254L9.95625 14.0684C9.85078 14.2266 9.65672 14.2813 9.49358 14.1977L7.89327 13.3824C7.84968 13.3595 7.8103 13.3291 7.77655 13.2896L7.19296 12.602L5.44778 12.8637C5.31559 12.8834 5.18481 12.8272 5.10184 12.7146L4.46763 11.8506L0.916845 16.8595C1.1306 17.0435 1.23888 17.223 1.23888 17.4496C1.23888 17.4968 1.28106 17.7158 1.36263 18.0641L1.65653 17.9257C1.89419 17.8116 2.16421 17.9896 2.18105 18.271L2.35543 21.2675L2.7492 21.8973C2.84482 22.0494 2.83357 22.2502 2.72248 22.3901L2.18108 23.0685V24.4725L2.52983 25.1342C2.60154 25.2726 2.59311 25.4429 2.50733 25.5722L1.87873 26.5108L2.67044 28.2053H3.81794L8.96486 29.2792L14.2705 29.7172L16.5683 29.4982C16.619 29.4936 16.671 29.4997 16.7188 29.518L18.0576 30.0002L19.5412 29.7233C19.6242 29.7081 19.7099 29.7233 19.7845 29.7674L22.9837 31.6414C23.0723 31.6931 23.1384 31.7814 23.1651 31.8863L23.6179 33.5823C23.632 33.6386 23.6362 33.6995 23.6277 33.7588L23.6024 33.9246L24.5952 33.1658ZM33.4137 25.0157L34.3165 24.5442L34.3812 24.5183L35.1153 24.3038L35.0492 24.1137L34.0423 23.379L33.2998 23.7228L33.4137 25.0157ZM17.087 8.21235L17.1011 8.13782L17.4118 7.03504L17.1123 6.2395C17.0842 6.16344 17.0771 6.07826 17.094 5.99764L17.5074 4.02935H16.4682L14.9832 5.78013L15.1843 7.18107C15.2265 7.47312 14.9734 7.71497 14.7104 7.63285L13.6388 7.29973L12.7206 7.61611L10.9374 8.43751L11.4409 9.24976L13.4068 9.80041L15.1801 10.0027H16.9084L17.087 8.21235Z" fill="#002A4E" stroke="#002A4E" stroke-width="0.25"/>
</g>
<defs>
<clipPath id="clip0_964_19946">
<rect width="36" height="36" fill="white"/>
</clipPath>
</defs>
</svg>
