<svg width="34" height="36" viewBox="0 0 34 36" fill="none" xmlns="http://www.w3.org/2000/svg">
<path d="M5.83825 8.39011C6.34896 8.39011 6.76194 7.97562 6.76194 7.46643V2.55186C6.76194 2.04115 6.34744 1.62817 5.83825 1.62817H0.923684C0.412977 1.62817 0 2.04267 0 2.55186V7.46643C0 7.97713 0.414493 8.39011 0.923684 8.39011H5.83825ZM1.84756 3.47554H4.91317V6.54115H1.84756V3.47554Z" fill="#002A4E"/>
<path d="M32.6876 29.019L24.3982 20.7296C26.0294 16.906 25.3396 12.4977 22.6322 9.34787H22.8335C23.3442 9.34787 23.7572 8.93338 23.7572 8.42419V0.923684C23.7572 0.414455 23.3427 0 22.8335 0H15.3345C14.8238 0 14.4108 0.414493 14.4108 0.923684V5.54078C11.4992 5.52154 8.70426 6.65541 6.6246 8.73667C3.65074 11.7105 2.67521 16.0757 4.00157 19.9717H1.63462C1.12391 19.9717 0.710938 20.3847 0.710938 20.8954V28.3944C0.710938 28.9051 1.12543 29.3181 1.63462 29.3181H9.13361C9.64432 29.3181 10.0573 28.9051 10.0573 28.3944V26.5041C11.4176 27.0828 12.8831 27.3745 14.3485 27.3745C15.8006 27.3745 17.2543 27.0888 18.6117 26.513L26.9026 34.804C27.7005 35.6018 28.7471 36 29.7951 36C30.8431 36 31.8911 35.6018 32.6875 34.804C34.2832 33.2083 34.2832 30.6132 32.6875 29.019L32.6876 29.019ZM16.2584 1.84888H21.9085V7.49899H16.2584V1.84888ZM8.20877 27.4707H2.55867V21.8205H4.82792C5.31342 22.682 5.91444 23.474 6.62201 24.1816C7.10456 24.6671 7.63747 25.1082 8.20885 25.4961L8.20877 27.4707ZM18.3975 24.5782C15.6191 25.9667 12.2559 25.8231 9.61505 24.2022C8.99926 23.8277 8.43379 23.3822 7.93199 22.8774C7.2259 22.1713 6.64861 21.3675 6.21339 20.4868C4.48444 16.9978 5.17571 12.8013 7.93199 10.0449C9.66241 8.31445 11.9879 7.37004 14.4112 7.39077V8.424C14.4112 8.93471 14.8257 9.34769 15.3349 9.34769L19.977 9.34621C20.2494 9.56233 20.5114 9.79473 20.7601 10.0434C23.5282 12.8115 24.2121 17.0183 22.4609 20.5164C22.0302 21.3853 21.4588 22.1787 20.7586 22.8789C20.0629 23.5776 19.2695 24.149 18.3976 24.5782H18.3975ZM20.3189 25.607C20.945 25.1984 21.5298 24.7218 22.0671 24.1845C22.6045 23.6471 23.0811 23.061 23.4896 22.4348L24.9729 23.918L21.8007 27.0902L20.3189 25.607ZM31.3823 33.4967C30.5074 34.3715 29.0849 34.3715 28.2101 33.4967L23.1091 28.3957L26.2813 25.2235L31.3823 30.3245C32.2556 31.1993 32.2556 32.6218 31.3823 33.4967Z" fill="#002A4E"/>
<path d="M11.1996 12.175H7.77134C7.26063 12.175 6.84766 12.5895 6.84766 13.0987V16.527C6.84766 17.0377 7.26215 17.4507 7.77134 17.4507H11.1996C11.7103 17.4507 12.1233 17.0362 12.1233 16.527V13.0987C12.1233 12.588 11.7103 12.175 11.1996 12.175ZM10.276 15.6033H8.69502V14.0224H10.276V15.6033Z" fill="#002A4E"/>
</svg>
