<svg width="34" height="34" viewBox="0 0 34 34" fill="none" xmlns="http://www.w3.org/2000/svg">
<path fill-rule="evenodd" clip-rule="evenodd" d="M31.2692 13.5772L16.9999 2.29301L2.73105 13.5757C1.92527 14.2142 1.94332 15.0055 2.36505 15.4718C2.83649 15.9929 3.41635 16.1562 4.0881 15.6262L16.6492 5.70076C16.854 5.53744 17.1478 5.53744 17.3556 5.70076L29.9121 15.6277C30.3986 16.0108 31.1442 16.0983 31.6367 15.4733C32.0237 14.9803 32.078 14.2157 31.2692 13.5772ZM2.02279 12.7057L16.6475 1.13786H16.6471C16.8564 0.970086 17.1005 0.937424 17.355 1.13786L31.9766 12.7057C33.1936 13.6663 33.2372 15.1689 32.564 16.1146C32.2266 16.5883 31.713 16.9431 31.1045 17.0471C30.4931 17.148 29.8077 16.9713 29.2038 16.4947L16.9981 6.84984L4.79559 16.4947C4.19012 16.9728 3.50631 17.148 2.89484 17.0471C2.28336 16.9431 1.77429 16.5883 1.43842 16.1146C0.76367 15.1689 0.807355 13.6663 2.02279 12.7057ZM14.2186 15.9558C14.3768 15.8682 14.547 15.8148 14.7157 15.8014L14.7157 15.8017C15.2203 15.7616 15.6962 16.0719 15.6962 16.792V20.8617L17.002 21.607L18.3078 20.8617V16.792C18.3078 15.8329 19.1528 15.5998 19.7838 15.9561C21.6228 16.9983 22.8744 18.872 22.8759 21.019C22.8759 22.2127 22.5069 23.3248 21.8653 24.2438C21.4526 24.8392 20.8863 25.295 20.2838 25.6974V31.8857L28.9079 31.8842V18.8451C28.9049 18.5333 29.167 18.2779 29.4833 18.2824C29.798 18.2853 30.0481 18.5377 30.0435 18.8451V32.4422C30.0435 32.7496 29.792 33.0005 29.4803 33.0005H19.7161C19.329 33.0005 19.1618 32.7154 19.1528 32.4422V25.4713C19.1528 25.2738 19.2567 25.0897 19.4284 24.9917C20.0293 24.6383 20.5444 24.1706 20.9948 23.5188C21.4436 22.8685 21.7448 21.9851 21.7448 21.0185C21.7433 19.403 20.8095 18.0148 19.4404 17.1328V21.1816C19.4404 21.3791 19.3335 21.5647 19.1573 21.6626L17.2866 22.7346C17.1104 22.8341 16.8905 22.8341 16.7173 22.7346L14.8452 21.6626C14.672 21.5647 14.562 21.3791 14.562 21.1816V17.1328C13.1929 18.0134 12.2591 19.4017 12.2576 21.0185C12.2576 21.9836 12.5588 22.8685 13.0092 23.5188C13.458 24.1706 13.9731 24.6398 14.574 24.9917C14.7457 25.0897 14.8497 25.2738 14.8497 25.4713L14.8481 32.4422C14.8421 32.7139 14.6734 33.0005 14.2849 33.0005L4.52066 32.999C4.2089 32.999 3.95738 32.7481 3.95738 32.4407V18.8447C3.95287 18.5374 4.20588 18.2865 4.51765 18.282C4.83545 18.2776 5.09601 18.5329 5.093 18.8447V31.8854L13.7186 31.8839V25.6971C13.1192 25.2947 12.5498 24.8389 12.1372 24.2436C11.4986 23.3245 11.1265 22.2124 11.1265 21.0187C11.128 18.8719 12.3826 16.9981 14.2186 15.9558Z" fill="#005C97"/>
<path d="M16.9999 2.29301L17.155 2.09691L17 1.97429L16.8449 2.09691L16.9999 2.29301ZM31.2692 13.5772L31.1141 13.7733L31.1143 13.7735L31.2692 13.5772ZM2.73105 13.5757L2.57598 13.3796L2.57579 13.3798L2.73105 13.5757ZM2.36505 15.4718L2.17965 15.6395L2.17966 15.6395L2.36505 15.4718ZM4.0881 15.6262L4.24296 15.8224L4.24309 15.8223L4.0881 15.6262ZM16.6492 5.70076L16.8042 5.89692L16.8051 5.89623L16.6492 5.70076ZM17.3556 5.70076L17.5106 5.50465L17.5101 5.50419L17.3556 5.70076ZM29.9121 15.6277L29.7571 15.8238L29.7575 15.8241L29.9121 15.6277ZM31.6367 15.4733L31.833 15.628L31.8333 15.6277L31.6367 15.4733ZM16.6475 1.13786L16.8026 1.33394L17.3666 0.887863H16.6475V1.13786ZM2.02279 12.7057L2.17781 12.9018L2.17788 12.9017L2.02279 12.7057ZM16.6471 1.13786L16.4908 0.94279L15.9355 1.38786H16.6471V1.13786ZM17.355 1.13786L17.5101 0.941801L17.5097 0.94145L17.355 1.13786ZM31.9766 12.7057L31.8215 12.9017L31.8217 12.9019L31.9766 12.7057ZM32.564 16.1146L32.7676 16.2597L32.7677 16.2596L32.564 16.1146ZM31.1045 17.0471L31.1453 17.2937L31.1466 17.2935L31.1045 17.0471ZM29.2038 16.4947L29.0488 16.6909L29.0489 16.691L29.2038 16.4947ZM16.9981 6.84984L17.1531 6.65369L16.9981 6.5312L16.8431 6.65371L16.9981 6.84984ZM4.79559 16.4947L4.95051 16.6909L4.95061 16.6909L4.79559 16.4947ZM2.89484 17.0471L2.85295 17.2935L2.85411 17.2937L2.89484 17.0471ZM1.43842 16.1146L1.64235 15.97L1.64194 15.9695L1.43842 16.1146ZM14.7157 15.8014L14.9635 15.7689L14.9327 15.5334L14.6959 15.5522L14.7157 15.8014ZM14.2186 15.9558L14.0975 15.7371L14.0952 15.7384L14.2186 15.9558ZM14.7157 15.8017L14.4678 15.8342L14.4987 16.0697L14.7355 16.0509L14.7157 15.8017ZM15.6962 20.8617H15.4462V21.0068L15.5723 21.0788L15.6962 20.8617ZM17.002 21.607L16.8781 21.8241L17.002 21.8949L17.1259 21.8241L17.002 21.607ZM18.3078 20.8617L18.4318 21.0788L18.5578 21.0068V20.8617H18.3078ZM19.7838 15.9561L19.9071 15.7386L19.9068 15.7384L19.7838 15.9561ZM22.8759 21.019H23.1259V21.0188L22.8759 21.019ZM21.8653 24.2438L21.6603 24.1007L21.6598 24.1014L21.8653 24.2438ZM20.2838 25.6974L20.145 25.4895L20.0338 25.5637V25.6974H20.2838ZM20.2838 31.8857H20.0338V32.1357L20.2839 32.1357L20.2838 31.8857ZM28.9079 31.8842L28.908 32.1342L29.1579 32.1342V31.8842H28.9079ZM28.9079 18.8451H29.1579L29.1579 18.8427L28.9079 18.8451ZM29.4833 18.2824L29.4797 18.5323L29.4809 18.5323L29.4833 18.2824ZM30.0435 18.8451L29.7935 18.8414V18.8451H30.0435ZM19.1528 32.4422H18.9026L18.9029 32.4505L19.1528 32.4422ZM19.4284 24.9917L19.5523 25.2088L19.5551 25.2072L19.4284 24.9917ZM20.9948 23.5188L21.2005 23.6609L21.2005 23.6608L20.9948 23.5188ZM21.7448 21.0185H21.9948V21.0183L21.7448 21.0185ZM19.4404 17.1328L19.5758 16.9227L19.1904 16.6744V17.1328H19.4404ZM19.1573 21.6626L19.0358 21.4441L19.033 21.4457L19.1573 21.6626ZM17.2866 22.7346L17.4095 22.9523L17.4109 22.9515L17.2866 22.7346ZM16.7173 22.7346L16.8418 22.5178L16.8415 22.5177L16.7173 22.7346ZM14.8452 21.6626L14.9694 21.4457L14.9683 21.4451L14.8452 21.6626ZM14.562 17.1328H14.812V16.6748L14.4268 16.9226L14.562 17.1328ZM12.2576 21.0185L12.0076 21.0183V21.0185H12.2576ZM13.0092 23.5188L13.2151 23.377L13.2147 23.3765L13.0092 23.5188ZM14.574 24.9917L14.4477 25.2075L14.4501 25.2088L14.574 24.9917ZM14.8497 25.4713L15.0997 25.4713V25.4713H14.8497ZM14.8481 32.4422L15.0981 32.4477L15.0981 32.4422L14.8481 32.4422ZM14.2849 33.0005L14.2848 33.2505H14.2849V33.0005ZM4.52066 32.999L4.5207 32.749H4.52066V32.999ZM3.95738 18.8447H4.20741L4.20735 18.8411L3.95738 18.8447ZM4.51765 18.282L4.51415 18.032H4.51408L4.51765 18.282ZM5.093 18.8447L4.843 18.8423V18.8447H5.093ZM5.093 31.8854H4.843V32.1354L5.09304 32.1354L5.093 31.8854ZM13.7186 31.8839L13.7187 32.1339L13.9686 32.1339V31.8839H13.7186ZM13.7186 25.6971H13.9686V25.5638L13.8579 25.4895L13.7186 25.6971ZM12.1372 24.2436L12.3426 24.1011L12.3425 24.1009L12.1372 24.2436ZM11.1265 21.0187L10.8765 21.0185V21.0187H11.1265ZM16.8449 2.4891L31.1141 13.7733L31.4242 13.3812L17.155 2.09691L16.8449 2.4891ZM2.88611 13.7718L17.155 2.48911L16.8449 2.09691L2.57598 13.3796L2.88611 13.7718ZM2.55045 15.304C2.38632 15.1226 2.302 14.8804 2.33566 14.6204C2.36923 14.3612 2.52406 14.0587 2.8863 13.7717L2.57579 13.3798C2.13226 13.7312 1.89322 14.1436 1.8398 14.5562C1.78648 14.9681 1.92205 15.3547 2.17965 15.6395L2.55045 15.304ZM3.93323 15.4299C3.63551 15.6648 3.38903 15.7236 3.18563 15.6955C2.97627 15.6666 2.76306 15.5391 2.55045 15.304L2.17966 15.6395C2.43848 15.9256 2.75092 16.1403 3.11729 16.1908C3.48961 16.2422 3.86894 16.1175 4.24296 15.8224L3.93323 15.4299ZM16.4942 5.50461L3.9331 15.43L4.24309 15.8223L16.8042 5.89692L16.4942 5.50461ZM17.5101 5.50419C17.2122 5.27016 16.79 5.26873 16.4934 5.5053L16.8051 5.89623C16.9181 5.80615 17.0833 5.80472 17.2011 5.89733L17.5101 5.50419ZM30.0672 15.4316L17.5106 5.50465L17.2006 5.89688L29.7571 15.8238L30.0672 15.4316ZM31.4403 15.3186C31.2399 15.5728 30.9999 15.6723 30.7654 15.6786C30.5233 15.6852 30.2711 15.5921 30.0668 15.4313L29.7575 15.8241C30.0397 16.0463 30.4035 16.1886 30.7789 16.1784C31.1619 16.1681 31.5409 15.9988 31.833 15.628L31.4403 15.3186ZM31.1143 13.7735C31.4771 14.0599 31.6231 14.3544 31.6531 14.6091C31.6834 14.8667 31.5989 15.1165 31.44 15.3189L31.8333 15.6277C32.0615 15.3371 32.1976 14.9581 32.1496 14.5506C32.1013 14.14 31.8701 13.7331 31.4241 13.381L31.1143 13.7735ZM16.4924 0.941786L1.8677 12.5096L2.17788 12.9017L16.8026 1.33394L16.4924 0.941786ZM16.6471 1.38786H16.6475V0.887863H16.6471V1.38786ZM17.5097 0.94145C17.3453 0.812055 17.1644 0.743448 16.9755 0.749929C16.7892 0.756323 16.6256 0.834713 16.4908 0.94279L16.8035 1.33294C16.878 1.27324 16.941 1.25141 16.9927 1.24964C17.0418 1.24795 17.1101 1.26323 17.2003 1.33428L17.5097 0.94145ZM32.1317 12.5096L17.5101 0.941802L17.1999 1.33392L31.8215 12.9017L32.1317 12.5096ZM32.7677 16.2596C33.5144 15.2106 33.4581 13.5567 32.1315 12.5094L31.8217 12.9019C32.929 13.776 32.9601 15.1271 32.3603 15.9697L32.7677 16.2596ZM31.1466 17.2935C31.8263 17.1774 32.3957 16.7819 32.7676 16.2597L32.3604 15.9696C32.0576 16.3947 31.5997 16.7089 31.0624 16.8006L31.1466 17.2935ZM29.0489 16.691C29.7015 17.2059 30.4565 17.4075 31.1453 17.2937L31.0638 16.8004C30.5296 16.8886 29.914 16.7367 29.3587 16.2985L29.0489 16.691ZM16.8431 7.046L29.0488 16.6909L29.3588 16.2986L17.1531 6.65369L16.8431 7.046ZM4.95061 16.6909L17.1532 7.04598L16.8431 6.65371L4.64056 16.2986L4.95061 16.6909ZM2.85411 17.2937C3.54272 17.4074 4.29629 17.2075 4.95051 16.6909L4.64066 16.2985C4.08396 16.7381 3.46991 16.8886 2.93556 16.8004L2.85411 17.2937ZM1.23449 16.2593C1.60474 16.7814 2.16959 17.1774 2.85295 17.2935L2.93672 16.8006C2.39713 16.7089 1.94384 16.3952 1.64235 15.97L1.23449 16.2593ZM1.86777 12.5095C0.542756 13.5567 0.486497 15.2108 1.2349 16.2598L1.64194 15.9695C1.04084 15.1269 1.07195 13.7758 2.17781 12.9018L1.86777 12.5095ZM14.6959 15.5522C14.4885 15.5686 14.284 15.6338 14.0975 15.7371L14.3398 16.1745C14.4696 16.1026 14.6055 16.0609 14.7354 16.0506L14.6959 15.5522ZM14.9636 15.7692L14.9635 15.7689L14.4678 15.8339L14.4678 15.8342L14.9636 15.7692ZM15.9462 16.792C15.9462 16.3746 15.8064 16.0438 15.5617 15.8253C15.3201 15.6096 15.0038 15.528 14.6959 15.5525L14.7355 16.0509C14.9321 16.0353 15.1061 16.0888 15.2286 16.1982C15.3481 16.3049 15.4462 16.4894 15.4462 16.792H15.9462ZM15.9462 20.8617V16.792H15.4462V20.8617H15.9462ZM17.1259 21.3899L15.8201 20.6446L15.5723 21.0788L16.8781 21.8241L17.1259 21.3899ZM18.1839 20.6446L16.8781 21.3899L17.1259 21.8241L18.4318 21.0788L18.1839 20.6446ZM18.0578 16.792V20.8617H18.5578V16.792H18.0578ZM19.9068 15.7384C19.534 15.5279 19.08 15.4808 18.7046 15.6537C18.3129 15.8341 18.0578 16.23 18.0578 16.792H18.5578C18.5578 16.3949 18.7252 16.1947 18.9138 16.1078C19.1186 16.0135 19.4026 16.0279 19.6609 16.1738L19.9068 15.7384ZM23.1259 21.0188C23.1243 18.7701 21.8135 16.819 19.9071 15.7386L19.6606 16.1736C21.4321 17.1776 22.6245 18.974 22.6259 21.0191L23.1259 21.0188ZM22.0703 24.3869C22.7406 23.4268 23.1259 22.265 23.1259 21.019H22.6259C22.6259 22.1604 22.2733 23.2227 21.6603 24.1007L22.0703 24.3869ZM20.4227 25.9053C21.0353 25.4961 21.6318 25.0196 22.0708 24.3863L21.6598 24.1014C21.2734 24.6589 20.7373 25.0939 20.145 25.4895L20.4227 25.9053ZM20.5338 31.8857V25.6974H20.0338V31.8857H20.5338ZM28.9079 31.6342L20.2838 31.6357L20.2839 32.1357L28.908 32.1342L28.9079 31.6342ZM28.6579 18.8451V31.8842H29.1579V18.8451H28.6579ZM29.4868 18.0324C29.0346 18.026 28.6535 18.3908 28.6579 18.8475L29.1579 18.8427C29.1563 18.6757 29.2993 18.5298 29.4797 18.5323L29.4868 18.0324ZM30.2935 18.8488C30.3001 18.3986 29.9347 18.0366 29.4856 18.0324L29.4809 18.5323C29.6614 18.534 29.796 18.6769 29.7936 18.8414L30.2935 18.8488ZM30.2935 32.4422V18.8451H29.7935V32.4422H30.2935ZM29.4803 33.2505C29.9285 33.2505 30.2935 32.8892 30.2935 32.4422H29.7935C29.7935 32.6099 29.6556 32.7505 29.4803 32.7505V33.2505ZM19.7161 33.2505H29.4803V32.7505H19.7161V33.2505ZM18.9029 32.4505C18.9089 32.6317 18.9674 32.8301 19.1037 32.9875C19.2455 33.1512 19.4548 33.2505 19.7161 33.2505V32.7505C19.5902 32.7505 19.5224 32.7072 19.4816 32.6601C19.4353 32.6067 19.4057 32.5259 19.4026 32.4339L18.9029 32.4505ZM18.9028 25.4713V32.4422H19.4028V25.4713H18.9028ZM19.3045 24.7746C19.0526 24.9183 18.9028 25.1866 18.9028 25.4713H19.4028C19.4028 25.361 19.4608 25.2611 19.5523 25.2088L19.3045 24.7746ZM20.7891 23.3767C20.3591 23.999 19.8708 24.4415 19.3017 24.7762L19.5551 25.2072C20.1879 24.8351 20.7297 24.3422 21.2005 23.6609L20.7891 23.3767ZM21.4948 21.0185C21.4948 21.9347 21.2089 22.7685 20.789 23.3768L21.2005 23.6608C21.6783 22.9686 21.9948 22.0356 21.9948 21.0185H21.4948ZM19.305 17.343C20.6198 18.1899 21.4934 19.5066 21.4948 21.0188L21.9948 21.0183C21.9932 19.2995 20.9993 17.8396 19.5758 16.9227L19.305 17.343ZM19.6904 21.1816V17.1328H19.1904V21.1816H19.6904ZM19.2788 21.8811C19.535 21.7386 19.6904 21.469 19.6904 21.1816H19.1904C19.1904 21.2892 19.1319 21.3907 19.0358 21.4442L19.2788 21.8811ZM17.4109 22.9515L19.2816 21.8796L19.033 21.4457L17.1623 22.5177L17.4109 22.9515ZM16.5928 22.9514C16.8438 23.0956 17.1577 23.0945 17.4095 22.9523L17.1637 22.5169C17.0631 22.5737 16.9373 22.5727 16.8418 22.5178L16.5928 22.9514ZM14.7209 21.8796L16.5931 22.9516L16.8415 22.5177L14.9694 21.4457L14.7209 21.8796ZM14.312 21.1816C14.312 21.471 14.4721 21.7388 14.7221 21.8802L14.9683 21.4451C14.8718 21.3905 14.812 21.2871 14.812 21.1816H14.312ZM14.312 17.1328V21.1816H14.812V17.1328H14.312ZM12.5076 21.0188C12.509 19.5052 13.3827 18.1886 14.6972 17.3431L14.4268 16.9226C13.0031 17.8383 12.0092 19.2982 12.0076 21.0183L12.5076 21.0188ZM13.2147 23.3765C12.7936 22.7684 12.5076 21.9332 12.5076 21.0185H12.0076C12.0076 22.034 12.3241 22.9687 12.8036 23.6612L13.2147 23.3765ZM14.7004 24.776C14.1317 24.443 13.6436 23.9993 13.2151 23.377L12.8033 23.6606C13.2724 24.3419 13.8144 24.8366 14.4477 25.2074L14.7004 24.776ZM15.0997 25.4713C15.0997 25.1866 14.9498 24.9183 14.6979 24.7746L14.4501 25.2088C14.5417 25.2611 14.5997 25.361 14.5997 25.4713H15.0997ZM15.0981 32.4422L15.0997 25.4713L14.5997 25.4712L14.5981 32.4421L15.0981 32.4422ZM14.2849 33.2505C14.5468 33.2505 14.7568 33.1509 14.8989 32.9869C15.0356 32.8291 15.0941 32.63 15.0981 32.4477L14.5982 32.4367C14.5962 32.5261 14.5673 32.6061 14.521 32.6595C14.4801 32.7067 14.4115 32.7505 14.2849 32.7505V33.2505ZM4.52062 33.249L14.2848 33.2505L14.2849 32.7505L4.5207 32.749L4.52062 33.249ZM3.70738 32.4407C3.70738 32.8877 4.07245 33.249 4.52066 33.249V32.749C4.34535 32.749 4.20738 32.6084 4.20738 32.4407H3.70738ZM3.70738 18.8447V32.4407H4.20738V18.8447H3.70738ZM4.51408 18.032C4.07099 18.0384 3.70077 18.3963 3.70741 18.8484L4.20735 18.8411C4.20497 18.6785 4.34078 18.5346 4.52122 18.532L4.51408 18.032ZM5.34299 18.8472C5.3474 18.3909 4.96821 18.0257 4.51415 18.032L4.52115 18.532C4.70269 18.5294 4.84463 18.675 4.84301 18.8423L5.34299 18.8472ZM5.343 31.8854V18.8447H4.843V31.8854H5.343ZM13.7186 31.6339L5.09296 31.6354L5.09304 32.1354L13.7187 32.1339L13.7186 31.6339ZM13.4686 25.6971V31.8839H13.9686V25.6971H13.4686ZM11.9317 24.386C12.3708 25.0195 12.9705 25.4961 13.5793 25.9047L13.8579 25.4895C13.2678 25.0934 12.7289 24.6584 12.3426 24.1011L11.9317 24.386ZM10.8765 21.0187C10.8765 22.2651 11.2651 23.4267 11.9319 24.3862L12.3425 24.1009C11.732 23.2223 11.3765 22.1597 11.3765 21.0187H10.8765ZM14.0952 15.7384C12.1921 16.8188 10.8781 18.7697 10.8765 21.0185L11.3765 21.0189C11.378 18.974 12.5732 17.1774 14.342 16.1732L14.0952 15.7384Z" fill="#005C97"/>
</svg>
