<svg width="20" height="20" viewBox="0 0 20 20" fill="none" xmlns="http://www.w3.org/2000/svg">
<path d="M10 0C4.486 0 0 4.486 0 10C0 15.514 4.486 20 10 20C15.514 20 20 15.514 20 10C20 4.486 15.514 0 10 0ZM10 2.1422C10.5203 2.1422 11.3922 3.63438 11.8461 6.4282H8.1539C8.6078 3.636 9.47968 2.1422 10 2.1422ZM8.42968 1.5797C7.6078 2.58204 7.03358 4.3641 6.71952 6.4297H2.21952C3.36406 3.9421 5.66172 2.0937 8.42972 1.5797H8.42968ZM1.42808 10.0001C1.42808 9.25792 1.53199 8.54386 1.71012 7.8579H6.54212C6.4679 8.67586 6.42806 9.51806 6.42806 10.3579C6.42806 10.9556 6.44837 11.554 6.48587 12.1438H1.71007C1.53195 11.4563 1.42803 10.7423 1.42803 10L1.42808 10.0001ZM2.21792 13.5719H6.62032C6.8461 15.436 7.27032 17.1195 7.88828 18.2977C5.36408 17.6539 3.28828 15.8937 2.21788 13.5719H2.21792ZM9.99992 18.5719C9.43586 18.5719 8.46398 16.8258 8.05226 13.5719H11.9483C11.5358 16.8243 10.5639 18.5719 9.99982 18.5719H9.99992ZM7.91392 12.1423C7.87798 11.5806 7.85611 10.9861 7.85611 10.3564C7.85611 9.45012 7.89986 8.62042 7.97173 7.85636H12.0257C12.0976 8.62042 12.1414 9.45012 12.1414 10.3564C12.1414 10.986 12.1195 11.5806 12.0835 12.1423H7.91392ZM12.1115 18.2977C12.7295 17.1196 13.1537 15.4359 13.3795 13.5719H17.7819C16.7116 15.8937 14.6359 17.6539 12.1115 18.2977H12.1115ZM18.5717 10.0001C18.5717 10.7423 18.4678 11.4563 18.2897 12.1423H13.5139C13.5522 11.5525 13.5717 10.954 13.5717 10.3564C13.5717 9.51652 13.5318 8.67432 13.4576 7.85636H18.2896C18.4678 8.54386 18.5717 9.25792 18.5717 10.0002L18.5717 10.0001ZM13.2819 6.4283C12.9655 4.3619 12.3936 2.5799 11.5702 1.5799C14.3358 2.09552 16.6342 3.9417 17.782 6.4299H13.282L13.2819 6.4283Z" fill="#005C97"/>
</svg>