<svg width="45" height="38" viewBox="0 0 45 38" fill="none" xmlns="http://www.w3.org/2000/svg">
<path d="M22.5669 1.00662C22.3745 1.02616 22.1936 1.10233 22.0435 1.22537L1.36983 18.721V18.7229C1.04079 18.9885 0.91572 19.4397 1.05811 19.842C1.2005 20.2444 1.57957 20.51 2.00099 20.5022H6.92308V35.9998C6.92308 36.5525 7.36372 36.9998 7.90635 36.9998H26.6116C26.8752 37.0037 27.1292 36.9002 27.3178 36.7107C27.5044 36.5232 27.6103 36.2674 27.6103 35.9998C27.6103 35.7322 27.5044 35.4744 27.3178 35.2869C27.1292 35.0994 26.8752 34.9959 26.6116 34.9998H8.89154V19.5022C8.89154 18.9514 8.4509 18.5041 7.90635 18.5041H4.72183L22.6724 3.3055L30.4096 9.77235L30.4115 9.7704C30.5866 9.92274 30.8098 10.0048 31.0407 10.0048H36.4553V14.5047C36.4572 14.7996 36.5862 15.0808 36.8094 15.2702L40.625 18.5046H37.4405C36.896 18.5046 36.4553 18.9518 36.4553 19.5026V34.9982H31.795C30.2344 27.9419 23.1322 21.2251 19.3358 18.2056V18.2076C19.1318 18.0201 18.8605 17.9263 18.5873 17.9517C18.314 17.9752 18.062 18.1158 17.8946 18.3365C17.7272 18.5572 17.6579 18.8384 17.7041 19.1138C17.7484 19.3892 17.9061 19.6314 18.1351 19.7837C20.0439 21.3013 22.8706 23.9359 25.3029 26.969C23.0823 26.8557 21.4237 26.4925 20.2114 25.9847C18.6913 25.348 17.8273 24.5042 17.1962 23.391C16.0859 21.434 15.7761 18.4204 15.0276 15.0492C18.9569 15.1527 21.6663 15.7112 23.3653 16.7835C25.2433 17.969 26.1708 19.7287 26.6268 22.6564V22.6583C26.648 22.9376 26.7827 23.1954 26.9982 23.3673C27.2137 23.5411 27.4908 23.6154 27.764 23.5704C28.0353 23.5275 28.2759 23.3693 28.4279 23.1369C28.5818 22.9044 28.6299 22.6173 28.5645 22.3459C28.0604 19.0998 26.8211 16.602 24.4121 15.0825C22.0011 13.5611 18.6202 13.0045 13.8134 13.0045C13.7826 13.0025 13.7519 13.0025 13.7211 13.0045C13.4324 13.0318 13.1707 13.1861 13.0053 13.4264C12.8398 13.6685 12.7859 13.9693 12.859 14.2544C13.8269 17.9379 13.8519 21.5083 15.4894 24.3927C16.3072 25.836 17.5829 27.0586 19.4571 27.8457C21.2735 28.6074 23.6384 28.998 26.8095 29.0019C28.4412 31.3534 29.7093 33.8319 30.071 36.1563H30.073C30.148 36.6406 30.5579 36.9981 31.0408 37H37.4406C37.9832 37 38.4239 36.5527 38.4258 36V20.5044H43.3479V20.5024C43.7674 20.5102 44.1464 20.2446 44.2888 19.8423C44.4312 19.44 44.3061 18.9888 43.9771 18.7232L38.4241 14.0202V9.0048L38.426 9.00676C38.4241 8.45402 37.9835 8.00678 37.4408 8.00678H31.4105L23.3039 1.22744V1.22549C23.098 1.05362 22.8305 0.975493 22.5669 1.00674L22.5669 1.00662Z" fill="#002A4E" stroke="#002A4E" stroke-width="0.5"/>
</svg>
