<svg width="23" height="23" viewBox="0 0 23 23" fill="none" xmlns="http://www.w3.org/2000/svg">
<path d="M11.75 0C5.56256 0 0.5 5.06256 0.5 11.25C0.5 17.4374 5.52512 22.5 11.75 22.5C17.9749 22.5 23 17.4749 23 11.25C23 5.02512 17.9374 0 11.75 0ZM11.75 20.6251C6.57512 20.6251 2.37512 16.4251 2.37512 11.2502C2.37512 6.07536 6.57512 1.87536 11.75 1.87536C16.9249 1.87536 21.1249 6.07536 21.1249 11.2502C21.1249 16.4251 16.9249 20.6251 11.75 20.6251ZM17.8249 11.2502C17.8249 11.7752 17.4124 12.1877 16.8874 12.1877H12.6874V16.3877C12.6874 16.9127 12.2749 17.3252 11.7499 17.3252C11.2249 17.3252 10.8124 16.9127 10.8124 16.3877V12.1877H6.61242C6.08742 12.1877 5.67493 11.7752 5.67493 11.2502C5.67493 10.7253 6.08744 10.3128 6.61242 10.3128H10.8124V6.11275C10.8124 5.58775 11.2249 5.17526 11.7499 5.17526C12.2749 5.17526 12.6874 5.58778 12.6874 6.11275V10.3128H16.8874C17.4124 10.3128 17.8249 10.7253 17.8249 11.2502Z" fill="#005C97"/>
</svg>
