<svg width="18" height="24" viewBox="0 0 18 24" fill="none" xmlns="http://www.w3.org/2000/svg">
<path d="M5.87379 5.51904H1.45898L5.87379 1.10352V5.51904Z" fill="white"/>
<path d="M7.36528 17.6007C8.40403 17.1966 9.53277 16.846 10.593 16.5966C9.92179 15.8176 9.25243 14.8444 8.69272 13.8414C8.33834 15.0705 7.86866 16.397 7.36523 17.6008L7.36528 17.6007Z" fill="black"/>
<path d="M8.44022 9.62256C8.42897 9.62443 8.41397 9.62725 8.39241 9.63568C8.3446 9.65162 8.30522 9.67881 8.27147 9.75662C8.14397 10.0557 8.24522 10.6238 8.44116 11.2341C8.60241 10.1822 8.51616 9.73505 8.44022 9.62256L8.44022 9.62256Z" fill="black"/>
<path d="M6.97803 0V6.62256H0.355469V24H17.5726V0H6.97803ZM14.4574 17.8481C14.1799 18.2353 13.7993 18.4406 13.353 18.4406C12.7483 18.4406 12.0461 18.059 11.2596 17.3053C9.84956 17.6006 8.2034 18.1265 6.87308 18.7087C6.45682 19.59 6.0584 20.3006 5.68901 20.8209C5.17995 21.5353 4.74121 21.8681 4.30621 21.8681C4.13371 21.8681 3.96776 21.8128 3.82527 21.7059C3.30778 21.3178 3.23746 20.8856 3.27027 20.5912C3.36121 19.7812 4.36246 18.9356 6.24579 18.0722C6.99298 16.4344 7.70453 14.416 8.1283 12.7293C7.63237 11.6503 7.15049 10.2487 7.50111 9.4274C7.62486 9.13959 7.84143 8.93708 8.12643 8.84146C8.2408 8.80396 8.35143 8.78427 8.45643 8.78427C8.70769 8.78427 8.93175 8.89396 9.08737 9.09272C9.23362 9.28022 9.67611 9.84272 9.01143 12.6402C9.68175 14.0239 10.6305 15.433 11.5398 16.3986C12.1923 16.2795 12.752 16.2204 13.2086 16.2204C13.9876 16.2204 14.4592 16.4023 14.6523 16.7754C14.8108 17.0839 14.7451 17.4448 14.4573 17.8479L14.4574 17.8481Z" fill="white"/>
<path d="M4.10254 20.6832C4.09785 20.7282 4.08379 20.8491 4.31629 21.0273C4.39035 21.0038 4.82254 20.8069 5.6288 19.3201C4.56567 19.9163 4.13348 20.4066 4.10254 20.6832H4.10254Z" fill="black"/>
<path d="M12.3252 17.1226C12.7302 17.4329 13.0893 17.6044 13.3527 17.6044C13.4699 17.6044 13.6227 17.5773 13.7764 17.3616C13.8505 17.2585 13.8786 17.191 13.8889 17.1563C13.8299 17.1245 13.6508 17.0579 13.2074 17.0579C12.9571 17.057 12.6589 17.0785 12.3252 17.1226H12.3252Z" fill="black"/>
</svg>
