<svg width="18" height="18" viewBox="0 0 18 18" fill="none" xmlns="http://www.w3.org/2000/svg">
<path d="M17.0204 14.0203L16.9204 13.8203C16.6408 13.1601 13.2 12.1601 12.9204 12.1406L12.7001 12.1609C12.2798 12.2406 11.8204 12.6211 10.9204 13.4008C10.7408 13.5609 10.5001 13.6008 10.2806 13.4805C9.10093 12.8203 7.66021 11.5008 6.94081 10.7009C6.16113 9.8407 5.22049 8.42126 4.78061 7.28046C4.70092 7.06014 4.78061 6.8203 4.94076 6.66014C5.96108 5.73982 6.40092 5.29998 6.44076 4.8203C6.46108 4.54062 5.86108 0.999899 5.24076 0.660099L5.06108 0.539787C4.66108 0.279628 4.06108 -0.100052 3.40092 0.0397875C3.24076 0.0796315 3.0806 0.139787 2.94076 0.219475C2.50014 0.499935 1.40014 1.2601 0.900155 2.23988C0.600155 2.8602 0.460315 8.47968 4.66036 13.2203C8.82056 17.9203 13.9604 18.1203 14.7206 17.9601H14.7409L14.801 17.9398C15.8409 17.5601 16.7213 16.5796 17.0612 16.1601C17.68 15.4202 17.2604 14.5202 17.0206 14.0203L17.0204 14.0203Z" fill="#005C97"/>
</svg>