<svg width="28" height="28" viewBox="0 0 28 28" fill="none" xmlns="http://www.w3.org/2000/svg">
<path d="M20.918 16.7508C20.6664 17.1609 20.7457 17.7761 21.0793 18.1097L27.3848 24.4152C28.2051 25.2355 28.2051 26.5644 27.3848 27.3848C26.5644 28.2051 25.2355 28.2051 24.4152 27.3848L18.1098 21.0793C17.7707 20.7402 17.1582 20.6719 16.7426 20.9207C16.7426 20.9207 16.5867 21.0355 16.1027 21.2734C14.6207 21.9953 12.9582 22.4 11.2 22.4C5.01487 22.4 0 17.3851 0 11.2C0 5.01487 5.01487 0 11.2 0C17.3851 0 22.4 5.01487 22.4 11.2C22.4 12.9637 21.9926 14.6316 21.2652 16.1164C21.0301 16.5976 20.918 16.7508 20.918 16.7508H20.918ZM11.1999 18.2C15.0662 18.2 18.1999 15.0664 18.1999 11.2C18.1999 7.33359 15.0662 4.19997 11.1999 4.19997C7.33348 4.19997 4.19986 7.33359 4.19986 11.2C4.19986 15.0664 7.33348 18.2 11.1999 18.2Z" fill="#002A4E"/>
</svg>
