<svg width="36" height="36" viewBox="0 0 36 36" fill="none" xmlns="http://www.w3.org/2000/svg">
<path d="M6.15914 4.49979C5.26054 4.49979 4.49976 5.25917 4.49976 6.15917V22.1003C4.49976 22.3985 4.61788 22.6839 4.82882 22.8948C5.03976 23.1058 5.32663 23.2253 5.62474 23.2253C6.24632 23.2253 6.74974 22.7219 6.74974 22.1003V6.74956H29.2497V10.1274H24.7469C24.1281 10.1288 23.6275 10.6308 23.6275 11.2496C23.6261 11.5477 23.7428 11.8346 23.9537 12.0469C24.1633 12.2578 24.4487 12.3774 24.7468 12.3788H29.2497V26.9994H25.8747C25.5766 26.9994 25.2897 27.1176 25.0788 27.3285C24.8679 27.5394 24.7497 27.8263 24.7497 28.1244C24.7497 28.4225 24.8679 28.7094 25.0788 28.9204C25.2897 29.1313 25.5766 29.2494 25.8747 29.2494H29.8405C30.7391 29.2494 31.4999 28.49 31.4999 27.59V6.15743C31.4999 5.25884 30.7405 4.49805 29.8405 4.49805L6.15914 4.49979ZM8.99976 7.52602C8.18554 7.52602 7.52599 8.18554 7.52599 8.99979C7.52599 9.81403 8.18551 10.4736 8.99976 10.475C9.81397 10.4736 10.4735 9.81403 10.4735 8.99979C10.4735 8.18554 9.814 7.52602 8.99976 7.52602ZM12.7236 7.52602C11.9094 7.52602 11.2498 8.18554 11.2498 8.99979C11.2498 9.81403 11.9093 10.4736 12.7236 10.475C13.5378 10.4736 14.1988 9.81403 14.1988 8.99979C14.1988 8.18554 13.5378 7.52602 12.7236 7.52602ZM16.5248 7.52602H16.5262C15.712 7.52602 15.0511 8.18554 15.0511 8.99979C15.0511 9.81403 15.712 10.4736 16.5262 10.475C17.3405 10.4736 18 9.81403 18 8.99979C18 8.18554 17.3405 7.52602 16.5262 7.52602H16.5248ZM17.9944 10.6858C13.9696 10.6858 10.686 13.9751 10.686 18.001C10.686 19.6112 11.2119 21.1018 12.0993 22.3128L4.83304 29.579L4.83445 29.5776C4.62211 29.7885 4.50257 30.0754 4.50257 30.3749C4.50257 30.6744 4.6221 30.9613 4.83445 31.1723C5.27322 31.6096 5.98195 31.6096 6.42068 31.1723L13.6938 23.8992C14.9017 24.7837 16.3896 25.3083 17.9954 25.3083C22.0202 25.3083 25.312 22.0261 25.312 17.9999C25.312 13.9751 22.02 10.6847 17.9954 10.6847L17.9944 10.6858ZM17.9944 12.9358C20.8041 12.9358 23.061 15.1915 23.061 18.001C23.061 20.8107 20.804 23.0594 17.9944 23.0594C15.1847 23.0594 12.936 20.8108 12.936 18.001C12.936 15.1914 15.1846 12.9358 17.9944 12.9358Z" fill="#002A4E"/>
</svg>
