<svg xmlns="http://www.w3.org/2000/svg" width="32.5" height="32.5" viewBox="0 0 32.5 32.5"><g transform="translate(-0.75 -0.75)"><path d="M19,17.667A6.667,6.667,0,1,0,12.333,11,6.678,6.678,0,0,0,19,17.667Zm0-12A5.333,5.333,0,1,1,13.667,11,5.34,5.34,0,0,1,19,5.667Z" fill="#002a4e" stroke="#002a4e" stroke-width="0.5"/><path d="M19,11.667a.667.667,0,1,1-.58,1,.668.668,0,1,0-1.155.673,1.979,1.979,0,0,0,1.067.867v.406a.667.667,0,1,0,1.334,0v-.4A2,2,0,0,0,19,10.336a.667.667,0,1,1,.58-1,.668.668,0,1,0,1.155-.673,1.979,1.979,0,0,0-1.067-.867V7.387a.667.667,0,0,0-1.334,0v.4A2,2,0,0,0,19,11.667Z" fill="#002a4e" stroke="#002a4e" stroke-width="0.5"/><path d="M33,28.327V2.973A1.976,1.976,0,0,0,31.027,1H7.641A1.976,1.976,0,0,0,5.667,2.973V27.667h-4A.669.669,0,0,0,1,28.334a4.587,4.587,0,0,0,1.367,3.294,4.5,4.5,0,0,0,1.741,1.1A4.579,4.579,0,0,0,5.667,33H30.334A2.662,2.662,0,0,0,33,30.333V28.326ZM5.667,31.667a3.408,3.408,0,0,1-2.361-.98A3.344,3.344,0,0,1,2.392,29l25.275,0v1.333a2.606,2.606,0,0,0,.373,1.333l-21.708,0Zm24.666,0A1.337,1.337,0,0,1,29,30.334v-2a.669.669,0,0,0-.667-.667H7V2.974a.641.641,0,0,1,.641-.641H31.034a.64.64,0,0,1,.633.641V30.339a1.334,1.334,0,0,1-1.334,1.328Z" fill="#002a4e" stroke="#002a4e" stroke-width="0.5"/><path d="M25.667,23.667H11A.667.667,0,1,0,11,25H25.667a.667.667,0,1,0,0-1.334Z" fill="#002a4e" stroke="#002a4e" stroke-width="0.5"/><path d="M25.667,19.667H11A.667.667,0,1,0,11,21H25.667a.667.667,0,1,0,0-1.334Z" fill="#002a4e" stroke="#002a4e" stroke-width="0.5"/></g></svg>