<svg xmlns="http://www.w3.org/2000/svg" viewBox="0 0 16.497 16.498">
  <defs>
    <style>
      .cls-1 {
        fill: #008FB4;
      }
    </style>
  </defs>
  <g id="telephone" transform="translate(-0.011 0)">
    <g id="Group_274" data-name="Group 274" transform="translate(0.011 0)">
      <path id="Path_258" data-name="Path 258" class="cls-1" d="M16.084,12.168l-2.051-2.051a1.452,1.452,0,0,0-2.051,0l-.932.932a1.1,1.1,0,0,1-1.554,0L5.455,7.006a1.1,1.1,0,0,1,0-1.554l.932-.932a1.449,1.449,0,0,0,0-2.051L4.337.424a1.451,1.451,0,0,0-2.049,0l-.747.741a5.235,5.235,0,0,0,0,7.4l6.4,6.406a5.227,5.227,0,0,0,7.4,0l.746-.746A1.452,1.452,0,0,0,16.084,12.168ZM2.969,1.108a.484.484,0,0,1,.684,0L5.7,3.152a.483.483,0,0,1,0,.684l-.342.342L2.629,1.445ZM8.626,14.281l-6.4-6.406A4.25,4.25,0,0,1,1.957,2.14L4.682,4.865a2.063,2.063,0,0,0,.09,2.824l4.041,4.044h0a2.063,2.063,0,0,0,2.824.09l2.725,2.725A4.242,4.242,0,0,1,8.626,14.281Zm6.774-.746-.342.342-2.735-2.735.342-.342a.484.484,0,0,1,.684,0L15.4,12.852A.484.484,0,0,1,15.4,13.536Z" transform="translate(-0.011 0)"/>
    </g>
  </g>
</svg>
